<svg width="25" height="24" viewBox="0 0 25 24" fill="none" xmlns="http://www.w3.org/2000/svg">
<g clip-path="url(#clip0_3372_4753)">
<path d="M12.4993 18.0321H2.49927C2.08927 18.0321 1.74927 17.707 1.74927 17.3149C1.74927 16.9228 2.08927 16.5977 2.49927 16.5977H12.4993C12.9093 16.5977 13.2493 16.9228 13.2493 17.3149C13.2493 17.7165 12.9093 18.0321 12.4993 18.0321Z" fill="white"/>
<path d="M10.2805 22.7565H4.73047C2.54047 22.7565 1.7605 22.0201 1.7605 19.9354V16.0145C1.7605 13.9297 2.54047 13.1934 4.73047 13.1934H10.2805C12.4705 13.1934 13.2505 13.9297 13.2505 16.0145V19.9449C13.2505 22.0201 12.4705 22.7565 10.2805 22.7565ZM4.72046 14.6278C3.36046 14.6278 3.25049 14.733 3.25049 16.0145V19.9449C3.25049 21.2264 3.36046 21.3316 4.72046 21.3316H10.2705C11.6305 21.3316 11.7405 21.2264 11.7405 19.9449V16.0145C11.7405 14.733 11.6305 14.6278 10.2705 14.6278H4.72046Z" fill="white"/>
<path d="M15.5007 22.7554C15.2307 22.7554 14.9807 22.6119 14.8507 22.392C14.7207 22.1625 14.7207 21.8947 14.8607 21.6652L15.9107 19.9917C16.1207 19.6569 16.5807 19.5422 16.9407 19.743C17.3007 19.9438 17.4107 20.3837 17.2007 20.728L16.9307 21.1584C19.6907 20.5368 21.7607 18.1651 21.7607 15.3344C21.7607 14.9423 22.1007 14.6172 22.5107 14.6172C22.9207 14.6172 23.2607 14.9423 23.2607 15.3344C23.2507 19.4274 19.7707 22.7554 15.5007 22.7554Z" fill="white"/>
<path d="M2.49927 10.324C2.08927 10.324 1.74927 9.99881 1.74927 9.60672C1.74927 5.52327 5.22927 2.19531 9.49927 2.19531C9.76927 2.19531 10.0193 2.33876 10.1493 2.55871C10.2793 2.78823 10.2793 3.05599 10.1393 3.28551L9.0893 4.95905C8.8793 5.29376 8.41927 5.40852 8.05927 5.20769C7.69927 5.00687 7.58926 4.56696 7.79926 4.22269L8.06928 3.79235C5.30928 4.41395 3.23926 6.7856 3.23926 9.61628C3.24926 9.99881 2.90927 10.324 2.49927 10.324Z" fill="white"/>
<path d="M19.0002 12.2366C16.1102 12.2366 13.7502 9.98925 13.7502 7.21594C13.7502 4.44264 16.1002 2.19531 19.0002 2.19531C21.9002 2.19531 24.2502 4.44264 24.2502 7.21594C24.2502 9.98925 21.8902 12.2366 19.0002 12.2366ZM19.0002 3.62978C16.9302 3.62978 15.2502 5.23638 15.2502 7.21594C15.2502 9.19551 16.9302 10.8021 19.0002 10.8021C21.0702 10.8021 22.7502 9.19551 22.7502 7.21594C22.7502 5.23638 21.0702 3.62978 19.0002 3.62978Z" fill="white"/>
</g>
<defs>
<clipPath id="clip0_3372_4753">
<rect width="24" height="24" fill="white" transform="translate(0.5)"/>
</clipPath>
</defs>
</svg>
