<svg width="21" height="22" viewBox="0 0 21 22" fill="none" xmlns="http://www.w3.org/2000/svg">
<path d="M12.3933 3.9838L15.0643 4.69266C15.1336 4.70684 15.1905 4.76377 15.2066 4.83381L15.9107 7.50466C15.9296 7.58313 15.9982 7.63817 16.0785 7.63817C16.1595 7.63817 16.2281 7.58308 16.2463 7.50466L16.9511 4.83381C16.9664 4.76377 17.0234 4.70684 17.0927 4.69266L19.7639 3.9838C19.8419 3.9692 19.8974 3.89954 19.8974 3.81928C19.8974 3.73828 19.842 3.67009 19.7639 3.65436L17.0927 2.94594C17.0234 2.93098 16.9664 2.87482 16.9511 2.80479L16.2463 0.133891C16.2281 0.0562031 16.1595 0 16.0785 0C15.9982 0 15.9296 0.0562031 15.9107 0.133891L15.2066 2.80474C15.1905 2.87478 15.1336 2.93094 15.0643 2.94589L12.3933 3.65436C12.3145 3.67005 12.2598 3.73828 12.2598 3.81928C12.2597 3.89954 12.3145 3.9692 12.3933 3.9838Z" fill="white"/>
<path d="M3.00689 7.53392L3.50963 9.44229C3.5235 9.49884 3.5727 9.53789 3.62998 9.53789C3.68764 9.53789 3.73654 9.49888 3.75004 9.44229L4.25311 7.53392C4.26368 7.4836 4.30493 7.44313 4.35491 7.43251L6.26358 6.9269C6.3194 6.91525 6.35918 6.86489 6.35918 6.80796C6.35918 6.75103 6.3194 6.70217 6.26358 6.69048L4.35491 6.18414C4.30489 6.17318 4.26368 6.13378 4.25311 6.08342L3.75004 4.17398C3.73654 4.11855 3.68764 4.0791 3.62998 4.0791C3.5727 4.0791 3.5235 4.1185 3.50963 4.17398L3.00689 6.08342C2.99482 6.13378 2.95507 6.17318 2.90471 6.18414L0.99634 6.69048C0.939449 6.70217 0.900391 6.75103 0.900391 6.80796C0.900391 6.86485 0.939406 6.91521 0.99634 6.9269L2.90471 7.43251C2.95511 7.44313 2.99482 7.4836 3.00689 7.53392Z" fill="white"/>
<path d="M1.13867 15.7937V17.5127C1.13867 17.7962 1.19561 18.0724 1.30909 18.3467C1.42252 18.6204 1.59255 18.8921 1.81908 19.1577C1.91469 19.269 2.02194 19.3791 2.13684 19.4875V16.7364C2.06168 16.6802 1.98872 16.6237 1.91761 16.5664C1.62168 16.3249 1.36013 16.0669 1.13867 15.7937Z" fill="white"/>
<path d="M2.93359 20.1146C3.19991 20.2894 3.4918 20.4568 3.80878 20.6137C3.94486 20.6815 4.08675 20.7457 4.23091 20.8085V17.8833C3.76504 17.6951 3.33088 17.4861 2.93359 17.2581V20.1146Z" fill="white"/>
<path d="M5.03143 18.1748V21.1061H4.98438C5.55311 21.3093 6.17001 21.4834 6.82743 21.6224V18.644C6.40127 18.5583 5.98834 18.4598 5.5929 18.3474C5.40177 18.2926 5.21421 18.2353 5.03143 18.1748Z" fill="white"/>
<path d="M7.625 21.7665C8.44656 21.8992 9.31556 21.9816 10.2196 21.9999V19.0037C9.32029 18.9862 8.45133 18.9114 7.625 18.7837V21.7665Z" fill="white"/>
<path d="M11.0195 21.9978C11.9608 21.9796 12.8633 21.8905 13.7139 21.7486V18.7703C12.8586 18.906 11.955 18.9873 11.0195 19.0056V21.9978Z" fill="white"/>
<path d="M14.5117 21.599C14.8262 21.5304 15.1333 21.4556 15.4281 21.3717C15.7339 21.2849 16.0271 21.19 16.3088 21.0879V18.1409C15.7455 18.331 15.1443 18.4936 14.5117 18.6243V21.599Z" fill="white"/>
<path d="M17.1074 17.8417V20.7654C17.5919 20.5465 18.0268 20.3057 18.4047 20.0467V17.1997C18.207 17.3165 17.9998 17.4292 17.7838 17.5368C17.5671 17.6437 17.3409 17.7451 17.1074 17.8417Z" fill="white"/>
<path d="M19.1543 16.6948H19.2017V19.3923C19.5388 19.0541 19.7832 18.7013 19.9292 18.3467C20.043 18.0724 20.0999 17.7962 20.0999 17.5127V15.7944C20.0758 15.8243 20.0517 15.8543 20.0261 15.8838C19.7796 16.1724 19.4855 16.442 19.1543 16.6948Z" fill="white"/>
<path d="M19.9303 14.0314C20.0441 13.757 20.101 13.4812 20.101 13.1981C20.101 12.915 20.0441 12.6392 19.9303 12.3649C19.8172 12.0909 19.6472 11.8191 19.4203 11.5539C18.9679 11.0231 18.2879 10.5218 17.4291 10.0979C15.713 9.24718 13.2944 8.70582 10.6199 8.70728C8.86484 8.70728 7.21982 8.93854 5.81127 9.33948C4.40236 9.73969 3.23056 10.3121 2.42215 10.9721C1.88186 11.411 1.50683 11.8859 1.30909 12.365C1.19565 12.6393 1.13867 12.9151 1.13867 13.1982C1.13867 13.4813 1.19561 13.7571 1.30909 14.0314C1.42252 14.305 1.59255 14.5768 1.81908 14.842C2.27219 15.3736 2.95221 15.8741 3.81025 16.2984C5.52634 17.1495 7.94544 17.6905 10.6199 17.6895C12.3754 17.6895 14.0202 17.4578 15.4284 17.0565C16.8373 16.6563 18.0098 16.0843 18.8176 15.4247C19.3576 14.985 19.7333 14.51 19.9303 14.0314ZM13.8225 14.1784C13.6981 14.4031 13.5 14.5946 13.2304 14.7533C12.955 14.9153 12.6102 15.0372 12.1965 15.1182C12.0143 15.1539 11.822 15.178 11.6267 15.1977L11.7062 16.1656H10.1601L10.1495 15.2167C9.72946 15.1908 9.32942 15.1415 8.95585 15.0649C8.39094 14.9489 7.69562 14.4951 7.69562 14.4951C7.63598 14.4684 7.59984 14.4221 7.59748 14.3711C7.59494 14.32 7.62446 14.2689 7.67993 14.2331L8.42179 13.7436C8.49935 13.6925 8.61407 13.6834 8.70014 13.7206C8.70014 13.7206 9.20305 14.0347 9.59763 14.1113C9.99526 14.1872 10.3927 14.2258 10.7876 14.2258C11.2868 14.2252 11.6948 14.1624 12.0076 14.0383C12.3177 13.9143 12.4532 13.7268 12.42 13.4758C12.3969 13.2996 12.3033 13.1635 12.1382 13.0646C11.976 12.9665 11.7141 12.9063 11.3535 12.88L10.1756 12.8151C9.48247 12.7706 8.95602 12.6447 8.59925 12.4422C8.24884 12.2427 8.09819 11.9494 8.13794 11.5707C8.15908 11.3678 8.24355 11.1913 8.38948 11.0388C8.5323 10.8896 8.71853 10.7652 8.94635 10.6652C9.17275 10.5668 9.43065 10.4923 9.72237 10.4434C9.84272 10.423 9.96935 10.4099 10.0981 10.3971L10.0932 9.94181L11.1946 9.93889L11.2314 10.3858C11.4975 10.3996 11.7522 10.4238 11.9918 10.461C12.4021 10.5226 12.8585 10.7149 12.8585 10.7149C12.915 10.7316 12.9573 10.7612 12.973 10.7962C12.9887 10.8323 12.9759 10.8674 12.9378 10.8929L12.4378 11.2314C12.3835 11.2679 12.2923 11.2781 12.2127 11.2544C12.2127 11.2544 11.8631 11.1125 11.573 11.0687C11.285 11.025 10.9858 11.0038 10.6727 11.0045C10.2646 11.0052 9.962 11.0523 9.76555 11.1468C9.566 11.2431 9.46348 11.3686 9.45931 11.5265C9.4551 11.6714 9.52385 11.7838 9.66943 11.8633C9.81535 11.9436 10.0629 11.9961 10.4148 12.0172L11.4021 12.0698C12.1382 12.1099 12.7129 12.2339 13.1301 12.4456C13.5584 12.6619 13.8203 12.9873 13.9145 13.4335C13.9736 13.7114 13.9429 13.9602 13.8225 14.1784ZM18.6221 13.5323L17.4663 13.8388C17.4356 13.8446 17.4109 13.8698 17.4043 13.9008L17.0993 15.0562C17.0913 15.0901 17.0621 15.1141 17.0271 15.1141C16.992 15.1141 16.9622 15.0901 16.9541 15.0562L16.6491 13.9008C16.6418 13.8698 16.6178 13.8446 16.5871 13.8388L15.4314 13.5323C15.3971 13.5254 15.373 13.4951 15.373 13.4608C15.373 13.4258 15.3971 13.3959 15.4314 13.3889L16.5871 13.0828C16.6178 13.0752 16.6418 13.0522 16.6491 13.0216L16.9541 11.8651C16.9622 11.8308 16.992 11.8071 17.0271 11.8071C17.0621 11.8071 17.0913 11.8308 17.0993 11.8651L17.4043 13.0216C17.4109 13.0522 17.4357 13.0752 17.4663 13.0828L18.6221 13.3889C18.6557 13.3959 18.6804 13.4258 18.6804 13.4608C18.6804 13.4951 18.6557 13.5254 18.6221 13.5323Z" fill="white"/>
</svg>
