<svg width="16" height="16" viewBox="0 0 16 16" fill="none" xmlns="http://www.w3.org/2000/svg">
<path d="M7.99966 0.719849C7.01474 0.719849 6.03947 0.913842 5.12953 1.29075C4.21959 1.66766 3.39279 2.22011 2.69635 2.91655C1.28983 4.32307 0.499655 6.23072 0.499655 8.21985C0.493099 9.9517 1.09275 11.6313 2.19466 12.9673L0.694655 14.4673C0.590587 14.5728 0.52009 14.7067 0.492059 14.8522C0.464029 14.9977 0.479721 15.1483 0.537155 15.2848C0.599449 15.4198 0.700433 15.5332 0.82729 15.6106C0.954147 15.6881 1.10116 15.7261 1.24966 15.7198H7.99966C9.98878 15.7198 11.8964 14.9297 13.303 13.5231C14.7095 12.1166 15.4997 10.209 15.4997 8.21985C15.4997 6.23072 14.7095 4.32307 13.303 2.91655C11.8964 1.51002 9.98878 0.719849 7.99966 0.719849ZM7.99966 14.2198H3.05716L3.75466 13.5223C3.89434 13.3818 3.97275 13.1917 3.97275 12.9936C3.97275 12.7955 3.89434 12.6054 3.75466 12.4648C2.77259 11.4839 2.16104 10.1928 2.02417 8.81144C1.88731 7.43014 2.23361 6.0441 3.00408 4.88949C3.77454 3.73488 4.9215 2.88312 6.24954 2.47933C7.57758 2.07554 9.00455 2.1447 10.2873 2.67503C11.5701 3.20537 12.6293 4.16405 13.2845 5.38777C13.9397 6.61148 14.1503 8.02451 13.8805 9.3861C13.6107 10.7477 12.8771 11.9736 11.8048 12.855C10.7325 13.7364 9.38773 14.2188 7.99966 14.2198Z" fill="#7B7B7B"/>
</svg>
