<svg width="19" height="19" viewBox="0 0 19 19" fill="none" xmlns="http://www.w3.org/2000/svg">
<path d="M15.6709 12.9613H17.2137V16.8184H15.6709V12.9613ZM13.3566 11.0327H14.8994V16.8184H13.3566V11.0327ZM11.0423 12.5755H12.5852V16.8184H11.0423V12.5755ZM8.72801 9.48982H10.2709V16.8184H8.72801V9.48982ZM6.41373 10.647H7.95658V16.8184H6.41373V10.647ZM4.09944 9.10411H5.6423V16.8184H4.09944V9.10411ZM1.78516 7.17554H3.32801V16.8184H1.78516V7.17554Z" fill="#F44336"/>
<path d="M13.3576 7.09848L15.7104 9.45134L16.7904 8.37134L13.3576 4.93848L11.8147 6.48134L7.95758 2.62419L6.02901 4.55277L3.09758 1.62134L2.01758 2.70134L6.02901 6.71277L7.95758 4.78419L11.8147 8.64134L13.3576 7.09848Z" fill="#D32F2F"/>
<path d="M17.2156 9.8756H13.7441L17.2156 6.40417V9.8756Z" fill="#D32F2F"/>
</svg>
