<svg width="20" height="20" viewBox="0 0 20 20" fill="none" xmlns="http://www.w3.org/2000/svg">
<path d="M11.6714 12.1407C11.1739 12.4558 10.5959 12.6224 10 12.6224C9.40414 12.6224 8.82617 12.4558 8.32859 12.1407L0.133164 6.95008C0.087922 6.92135 0.0435173 6.89144 0 6.86039L0 15.3657C0 16.3409 0.833008 17.1148 1.84113 17.1148H18.1588C19.1853 17.1148 20 16.3235 20 15.3657V6.86035C19.9564 6.89148 19.9119 6.92145 19.8665 6.95023L11.6714 12.1407Z" fill="white"/>
<path d="M0.783204 6.02392L8.97863 11.2146C9.28887 11.4111 9.64441 11.5093 9.99996 11.5093C10.3555 11.5093 10.7111 11.411 11.0214 11.2146L19.2168 6.02392C19.7072 5.7135 20 5.19397 20 4.63325C20 3.66911 19.1743 2.88477 18.1595 2.88477H1.84051C0.825665 2.8848 9.68791e-07 3.66915 9.68791e-07 4.63418C-0.000303273 4.90923 0.0710559 5.18009 0.207714 5.42258C0.344372 5.66507 0.54208 5.87166 0.783204 6.02392Z" fill="white"/>
</svg>
