<svg width="25" height="23" viewBox="0 0 25 23" fill="none" xmlns="http://www.w3.org/2000/svg">
<path d="M6.53388 13.6573L5.78787 16.3448L3.06124 16.4005C2.24638 14.942 1.78418 13.2733 1.78418 11.4999C1.78418 9.78518 2.21633 8.16812 2.98234 6.74426H2.98293L5.41039 7.17373L6.47377 9.50221C6.25121 10.1284 6.1299 10.8005 6.1299 11.4999C6.12998 12.259 6.27247 12.9863 6.53388 13.6573Z" fill="#6D6039"/>
<path d="M23.0283 9.56812C23.1514 10.1937 23.2156 10.8397 23.2156 11.4999C23.2156 12.2403 23.1349 12.9624 22.9813 13.659C22.4596 16.0295 21.0966 18.0994 19.2084 19.5641L19.2078 19.5636L16.1503 19.413L15.7175 16.8062C16.9704 16.0971 17.9496 14.9874 18.4654 13.659H12.7354V9.56812H18.549H23.0283Z" fill="#518EF8"/>
<path d="M19.2082 19.5636L19.2088 19.5641C17.3724 20.9886 15.0397 21.8408 12.5003 21.8408C8.41943 21.8408 4.87145 19.6397 3.06152 16.4005L6.53416 13.6573C7.4391 15.988 9.76891 17.6471 12.5003 17.6471C13.6743 17.6471 14.7741 17.3409 15.7179 16.8062L19.2082 19.5636Z" fill="#28B446"/>
<path d="M19.3399 3.53973L15.8685 6.28233C14.8917 5.69314 13.7371 5.35278 12.5001 5.35278C9.70688 5.35278 7.3335 7.08799 6.47389 9.50223L2.98301 6.74428H2.98242C4.76585 3.4261 8.35858 1.15906 12.5001 1.15906C15.1001 1.15906 17.4841 2.05282 19.3399 3.53973Z" fill="#FF0000"/>
</svg>
