<svg width="203" height="204" viewBox="0 0 203 204" fill="none" xmlns="http://www.w3.org/2000/svg">
<path d="M22.4778 200.281C9.16725 186.548 1.42303 168.366 0.743206 149.253C0.0633772 130.14 6.49625 111.454 18.7974 96.81C31.0986 82.1658 48.3937 72.6042 67.3373 69.9748C86.2808 67.3454 105.526 71.8352 121.351 82.5755L137.923 97.7699C141.723 102.432 144.965 107.523 147.584 112.937L141.813 190.086C139.333 193.714 136.549 197.125 133.492 200.281H22.4778Z" fill="#009968"/>
<path d="M147.584 112.938C144.965 107.523 141.722 102.432 137.922 97.7699L121.35 82.5721L121.058 82.3739C111.294 75.8634 99.8214 72.3892 88.0859 72.3892C76.3504 72.3892 64.8776 75.8634 55.1137 82.3739C45.7228 88.6722 37.8289 96.9549 31.9889 106.637C26.1488 116.32 22.5052 127.166 21.315 138.411C20.1248 149.655 21.4171 161.024 25.1007 171.714C28.7843 182.405 34.7694 192.157 42.6336 200.281H133.491C136.549 197.125 139.333 193.714 141.812 190.086L147.584 112.938Z" fill="#00BE8D"/>
<path d="M143.401 105.416C141.731 102.759 139.902 100.205 137.922 97.7699L130.508 90.9706C126.939 93.4076 123.07 95.3713 118.996 96.8125L104.308 101.818C103.482 102.107 102.767 102.647 102.264 103.363C101.76 104.078 101.493 104.934 101.5 105.809V128.888C101.485 129.624 101.668 130.351 102.031 130.993C102.394 131.634 102.922 132.166 103.561 132.532C104.201 132.899 104.926 133.087 105.663 133.076C106.4 133.066 107.12 132.857 107.748 132.472L122.506 123.247C130.282 118.325 137.317 112.321 143.401 105.416Z" fill="#009968"/>
<path d="M94.7812 55.8281H61.1875C57.4768 55.8281 54.4688 58.8362 54.4688 62.5469C54.4688 66.2575 57.4768 69.2656 61.1875 69.2656H94.7812C98.4919 69.2656 101.5 66.2575 101.5 62.5469C101.5 58.8362 98.4919 55.8281 94.7812 55.8281Z" fill="#FFB000"/>
<path d="M77.9844 176.766C100.248 176.766 118.297 158.717 118.297 136.453C118.297 114.189 100.248 96.1406 77.9844 96.1406C55.7204 96.1406 37.6719 114.189 37.6719 136.453C37.6719 158.717 55.7204 176.766 77.9844 176.766Z" fill="#75E6A7"/>
<path d="M77.9843 96.1406C70.1693 96.1344 62.5231 98.4138 55.9871 102.698C50.9187 110.441 48.6708 119.693 49.6213 128.898C50.5719 138.103 54.663 146.701 61.2067 153.244C67.7504 159.788 76.3476 163.879 85.5529 164.83C94.7581 165.78 104.01 163.532 111.753 158.464C115.728 152.383 117.984 145.341 118.283 138.082C118.583 130.824 116.914 123.62 113.453 117.233C109.992 110.845 104.868 105.513 98.6246 101.8C92.3807 98.0869 85.2488 96.1314 77.9843 96.1406Z" fill="#A7FACD"/>
<path d="M61.1876 55.8281L51.8485 39.0312C49.5474 33.448 52.685 25.5938 57.8282 25.5938H98.1407C103.284 25.5938 106.422 33.448 104.12 39.0312L94.7813 55.8281H61.1876ZM77.9845 133.094C76.6556 133.094 75.3566 132.7 74.2517 131.961C73.1468 131.223 72.2857 130.174 71.7772 128.946C71.2686 127.718 71.1356 126.368 71.3948 125.064C71.6541 123.761 72.294 122.564 73.2336 121.624C74.1732 120.684 75.3704 120.045 76.6737 119.785C77.977 119.526 79.3279 119.659 80.5556 120.168C81.7833 120.676 82.8326 121.537 83.5709 122.642C84.3092 123.747 84.7032 125.046 84.7032 126.375H91.422C91.4108 123.405 90.4158 120.522 88.5924 118.177C86.769 115.832 84.22 114.157 81.3438 113.415V109.578H74.6251V113.415C71.4618 114.229 68.7044 116.169 66.8705 118.872C65.0365 121.575 64.2521 124.855 64.6644 128.095C65.0768 131.335 66.6576 134.313 69.11 136.471C71.5625 138.628 74.7181 139.817 77.9845 139.812C79.3133 139.812 80.6123 140.207 81.7172 140.945C82.8221 141.683 83.6833 142.732 84.1918 143.96C84.7003 145.188 84.8334 146.539 84.5741 147.842C84.3149 149.145 83.675 150.342 82.7353 151.282C81.7957 152.222 80.5985 152.862 79.2952 153.121C77.9919 153.38 76.641 153.247 75.4133 152.739C74.1856 152.23 73.1363 151.369 72.398 150.264C71.6598 149.159 71.2657 147.86 71.2657 146.531H64.547C64.5581 149.502 65.5532 152.385 67.3766 154.73C69.2 157.074 71.749 158.749 74.6251 159.492V163.328H81.3438V159.492C84.5071 158.678 87.2645 156.737 89.0985 154.034C90.9324 151.331 91.7169 148.052 91.3045 144.811C90.8922 141.571 89.3114 138.593 86.8589 136.435C84.4064 134.278 81.2509 133.09 77.9845 133.094Z" fill="#009968"/>
<path d="M0.71875 196.922H202.281V203.641H0.71875V196.922ZM118.297 136.453H131.734V190.203H118.297V136.453ZM141.812 112.938H155.25V190.203H141.812V112.938ZM165.328 89.4219H178.766V190.203H165.328V89.4219Z" fill="#FFB000"/>
<path d="M117.048 126.657C114.778 117.604 109.435 109.619 101.931 104.069C101.667 104.612 101.523 105.205 101.511 105.809V128.888C101.496 129.624 101.679 130.351 102.042 130.993C102.405 131.634 102.933 132.166 103.572 132.532C104.211 132.899 104.937 133.087 105.674 133.076C106.411 133.066 107.131 132.857 107.759 132.472L117.048 126.657Z" fill="#75E6A7"/>
<path d="M188.844 69.2656H202.281V190.203H188.844V69.2656ZM94.7812 149.891H108.219V190.203H94.7812V149.891Z" fill="#FFB000"/>
<path d="M61.1881 55.8281C60.0394 55.835 58.912 56.1394 57.916 56.7116C58.1295 58.3214 58.9189 59.7994 60.138 60.8722C61.3571 61.945 62.9235 62.5399 64.5474 62.5469H98.1412C99.2899 62.54 100.417 62.2356 101.413 61.6634C101.2 60.0536 100.41 58.5756 99.1912 57.5028C97.9721 56.43 96.4057 55.8351 94.7818 55.8281H61.1881Z" fill="#FFBD00"/>
<path d="M104.121 39.0312C106.422 33.448 103.284 25.5937 98.1413 25.5937H63.3281C62.5205 25.5773 61.7209 25.7566 60.9976 26.1162C60.2743 26.4759 59.6488 27.0052 59.1744 27.6591C58.7001 28.313 58.3911 29.0719 58.2738 29.8711C58.1565 30.6703 58.2343 31.4861 58.5006 32.2487L58.5275 32.3125L63.5028 41.2619C64.8267 43.6425 66.7634 45.6256 69.112 47.0054C71.4606 48.3853 74.1357 49.1117 76.8596 49.1094H98.5175L104.121 39.0312Z" fill="#00BE8D"/>
<path d="M101.5 149.891V180.125C101.5 181.907 102.208 183.616 103.468 184.876C104.728 186.136 106.437 186.844 108.219 186.844V149.891H101.5ZM125.016 136.453V180.125C125.016 181.907 125.723 183.616 126.983 184.876C128.244 186.136 129.952 186.844 131.734 186.844V136.453H125.016ZM148.531 112.938V180.125C148.531 181.907 149.239 183.616 150.499 184.876C151.759 186.136 153.468 186.844 155.25 186.844V112.938H148.531ZM172.047 89.4219V180.125C172.047 181.907 172.755 183.616 174.015 184.876C175.275 186.136 176.984 186.844 178.766 186.844V89.4219H172.047ZM195.562 69.2656V180.125C195.562 181.907 196.27 183.616 197.53 184.876C198.79 186.136 200.499 186.844 202.281 186.844V69.2656H195.562Z" fill="#FFBD00"/>
<path d="M193.899 39.9349C194.064 40.5108 194.071 41.1202 193.921 41.6999C193.771 42.2796 193.468 42.8086 193.044 43.2321C192.621 43.6556 192.092 43.9582 191.512 44.1085C190.933 44.2588 190.323 44.2514 189.747 44.0871L172.047 39.0313C163.581 67.1727 147.073 94.5349 122.506 109.887L107.748 119.112C107.12 119.497 106.4 119.705 105.663 119.716C104.926 119.727 104.201 119.539 103.561 119.172C102.922 118.806 102.394 118.274 102.031 117.632C101.668 116.991 101.485 116.264 101.5 115.528V92.4453C101.494 91.5713 101.762 90.7175 102.266 90.0031C102.769 89.2887 103.483 88.7496 104.308 88.4611L118.996 83.4556C138.648 76.7604 157.907 56.4463 161.969 35.6719L146.989 28.1838C146.463 27.9207 146.014 27.5237 145.689 27.0328C145.365 26.5418 145.174 25.9741 145.138 25.3866C145.102 24.799 145.22 24.2122 145.482 23.6849C145.744 23.1576 146.14 22.7084 146.63 22.3822L178.292 1.27188C178.732 0.978653 179.235 0.793416 179.76 0.731232C180.285 0.669048 180.817 0.731674 181.313 0.914017C181.81 1.09636 182.256 1.39327 182.616 1.7806C182.976 2.16792 183.239 2.63473 183.385 3.14305L193.899 39.9349Z" fill="#F5A600"/>
<path d="M107.749 110.405L122.507 101.18C145.327 86.9191 161.194 62.2916 170.123 36.3034C170.687 34.6924 171.848 33.3592 173.366 32.578C174.884 31.7969 176.644 31.6273 178.283 32.1042L189.748 35.3796C190.207 35.5123 190.689 35.5437 191.161 35.4718C191.633 35.3999 192.084 35.2263 192.483 34.963L183.386 3.14305C183.24 2.63473 182.977 2.16792 182.617 1.7806C182.257 1.39327 181.811 1.09636 181.314 0.914017C180.818 0.731674 180.286 0.669048 179.761 0.731232C179.236 0.793416 178.733 0.978653 178.293 1.27188L146.631 22.3822C146.141 22.7084 145.745 23.1576 145.483 23.6849C145.221 24.2122 145.103 24.799 145.139 25.3866C145.175 25.9741 145.365 26.5418 145.69 27.0328C146.015 27.5237 146.463 27.9207 146.99 28.1838L161.97 35.6719C157.908 56.4463 138.649 76.7604 118.996 83.459L104.309 88.4645C103.485 88.7528 102.771 89.2914 102.267 90.0051C101.764 90.7188 101.496 91.5719 101.501 92.4453V106.823C101.486 107.56 101.67 108.286 102.033 108.927C102.396 109.568 102.925 110.099 103.564 110.465C104.203 110.832 104.929 111.019 105.665 111.009C106.401 110.998 107.121 110.789 107.749 110.405Z" fill="#FFB000"/>
</svg>
