<svg width="19" height="19" viewBox="0 0 19 19" fill="none" xmlns="http://www.w3.org/2000/svg">
<path d="M15.6718 7.29126H17.2147V16.1627H15.6718V7.29126ZM13.3576 9.99126H14.9004V16.1627H13.3576V9.99126ZM11.0433 8.06269H12.5861V16.1627H11.0433V8.06269ZM8.72899 10.377H10.2718V16.1627H8.72899V10.377ZM6.4147 11.5341H7.95756V16.1627H6.4147V11.5341ZM4.10042 10.7627H5.64328V16.1627H4.10042V10.7627ZM1.78613 12.3055H3.32899V16.1627H1.78613V12.3055Z" fill="#4CAF50"/>
<path d="M11.8147 5.67129L13.3576 7.21415L16.7904 3.78129L15.7104 2.70129L13.3576 5.05415L11.8147 3.51129L7.95758 7.36844L6.02901 5.43987L2.01758 9.45129L3.09758 10.5313L6.02901 7.59987L7.95758 9.52844L11.8147 5.67129Z" fill="#4CAF50"/>
<path d="M17.2146 2.27698H13.7432L17.2146 5.74841V2.27698Z" fill="#4CAF50"/>
</svg>
