<svg width="23" height="22" viewBox="0 0 23 22" fill="none" xmlns="http://www.w3.org/2000/svg">
<path fill-rule="evenodd" clip-rule="evenodd" d="M2.45444 7.38113L1.37223 7.99954C1.01259 8.20504 0.554453 8.0801 0.348946 7.72046C0.143439 7.36082 0.268386 6.90268 0.628024 6.69717L10.1357 1.26419C10.9812 0.781078 12.0191 0.781078 12.8645 1.26419L22.3722 6.69717C22.7319 6.90268 22.8568 7.36082 22.6513 7.72046C22.4458 8.0801 21.9877 8.20504 21.628 7.99954L20.5458 7.38113L19.1003 17.8607C18.8444 19.7162 17.2586 21.0984 15.3855 21.0984H7.61474C5.74167 21.0984 4.15584 19.7162 3.89991 17.8607L2.45444 7.38113ZM11.5002 14.3483C13.2952 14.3483 14.7502 12.8933 14.7502 11.0983C14.7502 9.3034 13.2952 7.84833 11.5002 7.84833C9.70532 7.84833 8.25024 9.3034 8.25024 11.0983C8.25024 12.8933 9.70532 14.3483 11.5002 14.3483Z" fill="white"/>
</svg>
