<svg width="10" height="46" viewBox="0 0 10 46" fill="none" xmlns="http://www.w3.org/2000/svg">
<path d="M1.41295 45.7783H0.0869529V44.3323H1.41295V45.7783ZM8.87695 45.7783H2.39695V44.3323H8.87695V45.7783ZM8.87695 38.053H5.75695C5.55295 38.053 5.32695 38.067 5.07895 38.095C4.83095 38.123 4.59295 38.189 4.36495 38.293C4.13295 38.393 3.94295 38.545 3.79495 38.749C3.64695 38.949 3.57295 39.221 3.57295 39.565C3.57295 39.749 3.60295 39.931 3.66295 40.111C3.72295 40.291 3.82695 40.455 3.97495 40.603C4.11895 40.747 4.31895 40.863 4.57495 40.951C4.82695 41.039 5.15095 41.083 5.54695 41.083L5.18095 41.941C4.62895 41.941 4.12895 41.835 3.68095 41.623C3.23295 41.407 2.87695 41.091 2.61295 40.675C2.34495 40.259 2.21095 39.747 2.21095 39.139C2.21095 38.659 2.29095 38.263 2.45095 37.951C2.61095 37.639 2.81495 37.391 3.06295 37.207C3.31095 37.023 3.57495 36.887 3.85495 36.799C4.13495 36.711 4.40095 36.655 4.65295 36.631C4.90095 36.603 5.10295 36.589 5.25895 36.589H8.87695V38.053ZM8.87695 42.547H2.39695V41.257H4.40695V41.083H8.87695V42.547ZM8.87695 33.2713L2.39695 35.6233V34.1773L7.09495 32.5453L2.39695 30.9193V29.4673L8.87695 31.8193V33.2713ZM9.05695 25.6788C9.05695 26.3348 8.91495 26.9108 8.63095 27.4068C8.34695 27.9028 7.95295 28.2908 7.44895 28.5708C6.94495 28.8468 6.36495 28.9848 5.70895 28.9848C5.00095 28.9848 4.38695 28.8488 3.86695 28.5768C3.34295 28.3048 2.93695 27.9268 2.64895 27.4428C2.36095 26.9588 2.21695 26.3988 2.21695 25.7628C2.21695 25.0908 2.37495 24.5208 2.69095 24.0528C3.00295 23.5808 3.44495 23.2308 4.01695 23.0028C4.58895 22.7748 5.26295 22.6888 6.03895 22.7448V24.1788H5.51095C4.80695 24.1828 4.29295 24.3068 3.96895 24.5508C3.64495 24.7948 3.48295 25.1788 3.48295 25.7028C3.48295 26.2948 3.66695 26.7348 4.03495 27.0228C4.39895 27.3108 4.93295 27.4548 5.63695 27.4548C6.29295 27.4548 6.80095 27.3108 7.16095 27.0228C7.52095 26.7348 7.70095 26.3148 7.70095 25.7628C7.70095 25.4068 7.62295 25.1008 7.46695 24.8448C7.30695 24.5848 7.07695 24.3848 6.77695 24.2448L7.20895 22.8168C7.79295 23.0648 8.24695 23.4488 8.57095 23.9688C8.89495 24.4848 9.05695 25.0548 9.05695 25.6788ZM6.03895 27.9108H4.94695V23.4528H6.03895V27.9108ZM9.05695 18.9041C9.05695 19.7041 8.87695 20.3541 8.51695 20.8541C8.15695 21.3541 7.65095 21.6581 6.99895 21.7661L6.77095 20.2901C7.09095 20.2141 7.34295 20.0461 7.52695 19.7861C7.71095 19.5261 7.80295 19.1981 7.80295 18.8021C7.80295 18.4541 7.73495 18.1861 7.59895 17.9981C7.45895 17.8061 7.26895 17.7101 7.02895 17.7101C6.88095 17.7101 6.76295 17.7461 6.67495 17.8181C6.58295 17.8861 6.49495 18.0381 6.41095 18.2741C6.32695 18.5101 6.22095 18.8721 6.09295 19.3601C5.94895 19.9041 5.79495 20.3361 5.63095 20.6561C5.46295 20.9761 5.26495 21.2061 5.03695 21.3461C4.80895 21.4861 4.53295 21.5561 4.20895 21.5561C3.80495 21.5561 3.45295 21.4501 3.15295 21.2381C2.85295 21.0261 2.62295 20.7301 2.46295 20.3501C2.29895 19.9701 2.21695 19.5221 2.21695 19.0061C2.21695 18.5021 2.29495 18.0561 2.45095 17.6681C2.60695 17.2761 2.82895 16.9601 3.11695 16.7201C3.40495 16.4801 3.74295 16.3321 4.13095 16.2761L4.39495 17.7521C4.11895 17.7881 3.90095 17.9141 3.74095 18.1301C3.58095 18.3421 3.49095 18.6261 3.47095 18.9821C3.45095 19.3221 3.50295 19.5961 3.62695 19.8041C3.74695 20.0121 3.91695 20.1161 4.13695 20.1161C4.26095 20.1161 4.36695 20.0741 4.45495 19.9901C4.54295 19.9061 4.63095 19.7381 4.71895 19.4861C4.80695 19.2301 4.91495 18.8501 5.04295 18.3461C5.17495 17.8301 5.32695 17.4181 5.49895 17.1101C5.66695 16.7981 5.86895 16.5741 6.10495 16.4381C6.34095 16.2981 6.62695 16.2281 6.96295 16.2281C7.61495 16.2281 8.12695 16.4661 8.49895 16.9421C8.87095 17.4141 9.05695 18.0681 9.05695 18.9041ZM1.41295 14.7939H0.0869529V13.3479H1.41295V14.7939ZM8.87695 14.7939H2.39695V13.3479H8.87695V14.7939ZM9.05695 8.60462C9.05695 9.26062 8.91495 9.83662 8.63095 10.3326C8.34695 10.8286 7.95295 11.2166 7.44895 11.4966C6.94495 11.7726 6.36495 11.9106 5.70895 11.9106C5.00095 11.9106 4.38695 11.7746 3.86695 11.5026C3.34295 11.2306 2.93695 10.8526 2.64895 10.3686C2.36095 9.88462 2.21695 9.32462 2.21695 8.68862C2.21695 8.01662 2.37495 7.44662 2.69095 6.97862C3.00295 6.50662 3.44495 6.15662 4.01695 5.92862C4.58895 5.70062 5.26295 5.61462 6.03895 5.67062V7.10462H5.51095C4.80695 7.10862 4.29295 7.23262 3.96895 7.47662C3.64495 7.72062 3.48295 8.10462 3.48295 8.62862C3.48295 9.22062 3.66695 9.66062 4.03495 9.94862C4.39895 10.2366 4.93295 10.3806 5.63695 10.3806C6.29295 10.3806 6.80095 10.2366 7.16095 9.94862C7.52095 9.66062 7.70095 9.24062 7.70095 8.68862C7.70095 8.33262 7.62295 8.02662 7.46695 7.77062C7.30695 7.51062 7.07695 7.31062 6.77695 7.17062L7.20895 5.74262C7.79295 5.99062 8.24695 6.37462 8.57095 6.89462C8.89495 7.41062 9.05695 7.98062 9.05695 8.60462ZM6.03895 10.8366H4.94695V6.37862H6.03895V10.8366ZM8.87695 4.33187H2.39695V3.05387H3.97495L3.77095 3.20987C3.55495 3.12987 3.35895 3.02387 3.18295 2.89187C3.00295 2.75587 2.85495 2.59387 2.73895 2.40587C2.63095 2.24587 2.54695 2.06987 2.48695 1.87787C2.42295 1.68187 2.38495 1.48187 2.37295 1.27787C2.35695 1.07387 2.36495 0.875875 2.39695 0.683875H3.74695C3.69095 0.875875 3.67295 1.09787 3.69295 1.34987C3.71295 1.59787 3.78295 1.82187 3.90295 2.02187C4.01095 2.22187 4.14895 2.38587 4.31695 2.51387C4.48495 2.63787 4.67695 2.72987 4.89295 2.78987C5.10495 2.84987 5.33495 2.87987 5.58295 2.87987H8.87695V4.33187Z" fill="#248866"/>
</svg>
