<svg width="78" height="30" viewBox="0 0 78 30" fill="none" xmlns="http://www.w3.org/2000/svg">
<path d="M4.2793 11.08V22H2.8793V11.08H4.2793ZM12.5696 10.88C13.8763 10.88 14.9429 11.2867 15.7696 12.1C16.5963 12.9 17.0096 14.0667 17.0096 15.6V22H15.6296V15.76C15.6296 14.5733 15.3296 13.6667 14.7296 13.04C14.1429 12.4133 13.3363 12.1 12.3096 12.1C11.2563 12.1 10.4163 12.4333 9.78961 13.1C9.16294 13.7667 8.84961 14.7467 8.84961 16.04V22H7.44961V11.08H8.84961V12.94C9.19628 12.2733 9.69628 11.7667 10.3496 11.42C11.0029 11.06 11.7429 10.88 12.5696 10.88ZM23.9859 20.64L27.6659 11.08H29.1459L24.7659 22H23.1859L18.8059 11.08H20.3059L23.9859 20.64ZM40.9234 15.98C40.9234 16.46 40.91 16.8267 40.8834 17.08H31.8234C31.8634 17.9067 32.0634 18.6133 32.4234 19.2C32.7834 19.7867 33.2567 20.2333 33.8434 20.54C34.43 20.8333 35.07 20.98 35.7634 20.98C36.67 20.98 37.43 20.76 38.0434 20.32C38.67 19.88 39.0834 19.2867 39.2834 18.54H40.7634C40.4967 19.6067 39.9234 20.48 39.0434 21.16C38.1767 21.8267 37.0834 22.16 35.7634 22.16C34.7367 22.16 33.8167 21.9333 33.0034 21.48C32.19 21.0133 31.55 20.36 31.0834 19.52C30.63 18.6667 30.4034 17.6733 30.4034 16.54C30.4034 15.4067 30.63 14.4133 31.0834 13.56C31.5367 12.7067 32.17 12.0533 32.9834 11.6C33.7967 11.1467 34.7234 10.92 35.7634 10.92C36.8034 10.92 37.71 11.1467 38.4834 11.6C39.27 12.0533 39.87 12.6667 40.2834 13.44C40.71 14.2 40.9234 15.0467 40.9234 15.98ZM39.5034 15.94C39.5167 15.1267 39.35 14.4333 39.0034 13.86C38.67 13.2867 38.21 12.8533 37.6234 12.56C37.0367 12.2667 36.3967 12.12 35.7034 12.12C34.6634 12.12 33.7767 12.4533 33.0434 13.12C32.31 13.7867 31.9034 14.7267 31.8234 15.94H39.5034ZM47.2448 22.16C45.9914 22.16 44.9648 21.8733 44.1648 21.3C43.3781 20.7133 42.9381 19.92 42.8448 18.92H44.2848C44.3514 19.5333 44.6381 20.0333 45.1448 20.42C45.6648 20.7933 46.3581 20.98 47.2248 20.98C47.9848 20.98 48.5781 20.8 49.0048 20.44C49.4448 20.08 49.6648 19.6333 49.6648 19.1C49.6648 18.7267 49.5448 18.42 49.3048 18.18C49.0648 17.94 48.7581 17.7533 48.3848 17.62C48.0248 17.4733 47.5314 17.32 46.9048 17.16C46.0914 16.9467 45.4314 16.7333 44.9248 16.52C44.4181 16.3067 43.9848 15.9933 43.6248 15.58C43.2781 15.1533 43.1048 14.5867 43.1048 13.88C43.1048 13.3467 43.2648 12.8533 43.5848 12.4C43.9048 11.9467 44.3581 11.5867 44.9448 11.32C45.5314 11.0533 46.1981 10.92 46.9448 10.92C48.1181 10.92 49.0648 11.22 49.7848 11.82C50.5048 12.4067 50.8914 13.22 50.9448 14.26H49.5448C49.5048 13.62 49.2514 13.1067 48.7848 12.72C48.3314 12.32 47.7048 12.12 46.9048 12.12C46.1981 12.12 45.6248 12.2867 45.1848 12.62C44.7448 12.9533 44.5248 13.3667 44.5248 13.86C44.5248 14.2867 44.6514 14.64 44.9048 14.92C45.1714 15.1867 45.4981 15.4 45.8848 15.56C46.2714 15.7067 46.7914 15.8733 47.4448 16.06C48.2314 16.2733 48.8581 16.48 49.3248 16.68C49.7914 16.88 50.1914 17.1733 50.5248 17.56C50.8581 17.9467 51.0314 18.46 51.0448 19.1C51.0448 19.6867 50.8848 20.2133 50.5648 20.68C50.2448 21.1333 49.7981 21.4933 49.2248 21.76C48.6514 22.0267 47.9914 22.16 47.2448 22.16ZM54.3801 9.02C54.1001 9.02 53.8601 8.92 53.6601 8.72C53.4601 8.52 53.3601 8.27333 53.3601 7.98C53.3601 7.68667 53.4601 7.44667 53.6601 7.26C53.8601 7.06 54.1001 6.96 54.3801 6.96C54.6601 6.96 54.9001 7.06 55.1001 7.26C55.3001 7.44667 55.4001 7.68667 55.4001 7.98C55.4001 8.27333 55.3001 8.52 55.1001 8.72C54.9001 8.92 54.6601 9.02 54.3801 9.02ZM55.0801 11.08V22H53.6801V11.08H55.0801ZM68.1304 15.98C68.1304 16.46 68.1171 16.8267 68.0904 17.08H59.0304C59.0704 17.9067 59.2704 18.6133 59.6304 19.2C59.9904 19.7867 60.4637 20.2333 61.0504 20.54C61.6371 20.8333 62.2771 20.98 62.9704 20.98C63.8771 20.98 64.6371 20.76 65.2504 20.32C65.8771 19.88 66.2904 19.2867 66.4904 18.54H67.9704C67.7037 19.6067 67.1304 20.48 66.2504 21.16C65.3837 21.8267 64.2904 22.16 62.9704 22.16C61.9437 22.16 61.0237 21.9333 60.2104 21.48C59.3971 21.0133 58.7571 20.36 58.2904 19.52C57.8371 18.6667 57.6104 17.6733 57.6104 16.54C57.6104 15.4067 57.8371 14.4133 58.2904 13.56C58.7437 12.7067 59.3771 12.0533 60.1904 11.6C61.0037 11.1467 61.9304 10.92 62.9704 10.92C64.0104 10.92 64.9171 11.1467 65.6904 11.6C66.4771 12.0533 67.0771 12.6667 67.4904 13.44C67.9171 14.2 68.1304 15.0467 68.1304 15.98ZM66.7104 15.94C66.7237 15.1267 66.5571 14.4333 66.2104 13.86C65.8771 13.2867 65.4171 12.8533 64.8304 12.56C64.2437 12.2667 63.6037 12.12 62.9104 12.12C61.8704 12.12 60.9837 12.4533 60.2504 13.12C59.5171 13.7867 59.1104 14.7267 59.0304 15.94H66.7104ZM72.0918 13.02C72.3985 12.34 72.8651 11.8133 73.4918 11.44C74.1318 11.0667 74.9118 10.88 75.8318 10.88V12.34H75.4518C74.4385 12.34 73.6251 12.6133 73.0118 13.16C72.3985 13.7067 72.0918 14.62 72.0918 15.9V22H70.6918V11.08H72.0918V13.02Z" fill="white"/>
<circle cx="3.98083" cy="5.59521" r="3.98083" fill="#6AEEB9"/>
</svg>
