<svg width="20" height="20" viewBox="0 0 20 20" fill="none" xmlns="http://www.w3.org/2000/svg">
<path fill-rule="evenodd" clip-rule="evenodd" d="M10.3945 2.58752C10.2708 2.53003 10.136 2.50024 9.99952 2.50024C9.86307 2.50024 9.72826 2.53003 9.60452 2.58752L0.854518 6.65002C0.692593 6.72536 0.555557 6.84538 0.459535 6.99597C0.363512 7.14655 0.3125 7.32143 0.3125 7.50002C0.3125 7.67861 0.363512 7.85349 0.459535 8.00407C0.555557 8.15466 0.692593 8.27468 0.854518 8.35002L2.64702 9.18252C2.5504 9.33321 2.4992 9.50852 2.49952 9.68752V13.75C2.49965 13.9583 2.56914 14.1606 2.69702 14.325L2.69827 14.3275L2.69952 14.3288L2.70327 14.3338L2.71327 14.3463C2.75406 14.3981 2.79702 14.4481 2.84202 14.4963C2.92702 14.5913 3.04827 14.7188 3.20702 14.87C3.52452 15.17 3.99452 15.5638 4.62202 15.9525C5.88202 16.735 7.77077 17.5 10.312 17.5C12.8583 17.5 14.612 16.7313 15.7433 15.9175C16.1959 15.5942 16.6062 15.2154 16.9645 14.79C17.1117 14.613 17.2462 14.4259 17.367 14.23L17.3758 14.215L17.3795 14.21V14.2075C17.3795 14.2063 17.3808 14.205 16.562 13.75L17.3808 14.2063C17.4584 14.0667 17.4992 13.9097 17.4995 13.75V9.68752C17.4998 9.50853 17.4486 9.33324 17.352 9.18252L19.1445 8.35002C19.3064 8.27468 19.4435 8.15466 19.5395 8.00407C19.6355 7.85349 19.6865 7.67861 19.6865 7.50002C19.6865 7.32143 19.6355 7.14655 19.5395 6.99597C19.4435 6.84538 19.3064 6.72536 19.1445 6.65002L10.3945 2.58752ZM15.6245 9.98502L10.3945 12.4125C10.2708 12.47 10.136 12.4998 9.99952 12.4998C9.86307 12.4998 9.72826 12.47 9.60452 12.4125L4.37452 9.98502V13.3888C4.74917 13.7577 5.16431 14.0831 5.61202 14.3588C6.61702 14.9838 8.16577 15.625 10.312 15.625C12.4533 15.625 13.8245 14.9875 14.647 14.395C15.0154 14.1326 15.3445 13.819 15.6245 13.4638V9.98502ZM9.99952 10.5288L3.47577 7.50002L9.99952 4.47127L16.5233 7.50002L9.99952 10.5288Z" fill="#EDEDED"/>
</svg>
