<svg width="170" height="60" viewBox="0 0 170 60" fill="none" xmlns="http://www.w3.org/2000/svg">
<path d="M9.51042 21.2333V45.5H6.39931V21.2333H9.51042ZM27.9333 20.7889C30.837 20.7889 33.2074 21.6926 35.0444 23.5C36.8815 25.2778 37.8 27.8704 37.8 31.2778V45.5H34.7333V31.6333C34.7333 28.9963 34.0667 26.9815 32.7333 25.5889C31.4296 24.1963 29.637 23.5 27.3556 23.5C25.0148 23.5 23.1482 24.2407 21.7556 25.7222C20.363 27.2037 19.6667 29.3815 19.6667 32.2556V45.5H16.5556V21.2333H19.6667V25.3667C20.437 23.8852 21.5482 22.7593 23 21.9889C24.4519 21.1889 26.0963 20.7889 27.9333 20.7889ZM53.3028 42.4778L61.4806 21.2333H64.7694L55.0361 45.5H51.525L41.7917 21.2333H45.125L53.3028 42.4778ZM90.9417 32.1222C90.9417 33.1889 90.912 34.0037 90.8528 34.5667H70.7195C70.8083 36.4037 71.2528 37.9741 72.0528 39.2778C72.8528 40.5815 73.9046 41.5741 75.2083 42.2556C76.512 42.9074 77.9343 43.2333 79.475 43.2333C81.4898 43.2333 83.1787 42.7444 84.5417 41.7667C85.9343 40.7889 86.8528 39.4704 87.2972 37.8111H90.5861C89.9935 40.1815 88.7195 42.1222 86.7639 43.6333C84.838 45.1148 82.4083 45.8556 79.475 45.8556C77.1935 45.8556 75.1491 45.3519 73.3417 44.3444C71.5343 43.3074 70.112 41.8556 69.075 39.9889C68.0676 38.0926 67.5639 35.8852 67.5639 33.3667C67.5639 30.8481 68.0676 28.6407 69.075 26.7444C70.0824 24.8481 71.4898 23.3963 73.2972 22.3889C75.1046 21.3815 77.1639 20.8778 79.475 20.8778C81.7861 20.8778 83.8009 21.3815 85.5195 22.3889C87.2676 23.3963 88.6009 24.7593 89.5195 26.4778C90.4676 28.1667 90.9417 30.0481 90.9417 32.1222ZM87.7861 32.0333C87.8157 30.2259 87.4454 28.6852 86.675 27.4111C85.9343 26.137 84.912 25.1741 83.6083 24.5222C82.3046 23.8704 80.8824 23.5444 79.3417 23.5444C77.0306 23.5444 75.0602 24.2852 73.4306 25.7667C71.8009 27.2481 70.8972 29.337 70.7195 32.0333H87.7861ZM104.989 45.8556C102.204 45.8556 99.9226 45.2185 98.1448 43.9444C96.3967 42.6407 95.4189 40.8778 95.2115 38.6556H98.4115C98.5596 40.0185 99.1967 41.1296 100.323 41.9889C101.478 42.8185 103.019 43.2333 104.945 43.2333C106.634 43.2333 107.952 42.8333 108.9 42.0333C109.878 41.2333 110.367 40.2407 110.367 39.0556C110.367 38.2259 110.1 37.5444 109.567 37.0111C109.034 36.4778 108.352 36.063 107.523 35.7667C106.723 35.4407 105.626 35.1 104.234 34.7444C102.426 34.2704 100.96 33.7963 99.8337 33.3222C98.7078 32.8481 97.7448 32.1519 96.9448 31.2333C96.1744 30.2852 95.7892 29.0259 95.7892 27.4556C95.7892 26.2704 96.1448 25.1741 96.8559 24.1667C97.567 23.1593 98.5744 22.3593 99.8781 21.7667C101.182 21.1741 102.663 20.8778 104.323 20.8778C106.93 20.8778 109.034 21.5444 110.634 22.8778C112.234 24.1815 113.093 25.9889 113.211 28.3H110.1C110.011 26.8778 109.449 25.737 108.411 24.8778C107.404 23.9889 106.011 23.5444 104.234 23.5444C102.663 23.5444 101.389 23.9148 100.411 24.6556C99.4337 25.3963 98.9448 26.3148 98.9448 27.4111C98.9448 28.3593 99.2263 29.1444 99.7892 29.7667C100.382 30.3593 101.108 30.8333 101.967 31.1889C102.826 31.5148 103.982 31.8852 105.434 32.3C107.182 32.7741 108.574 33.2333 109.611 33.6778C110.649 34.1222 111.537 34.7741 112.278 35.6333C113.019 36.4926 113.404 37.6333 113.434 39.0556C113.434 40.3593 113.078 41.5296 112.367 42.5667C111.656 43.5741 110.663 44.3741 109.389 44.9667C108.115 45.5593 106.649 45.8556 104.989 45.8556ZM120.845 16.6556C120.223 16.6556 119.69 16.4333 119.245 15.9889C118.801 15.5444 118.579 14.9963 118.579 14.3444C118.579 13.6926 118.801 13.1593 119.245 12.7444C119.69 12.3 120.223 12.0778 120.845 12.0778C121.468 12.0778 122.001 12.3 122.445 12.7444C122.89 13.1593 123.112 13.6926 123.112 14.3444C123.112 14.9963 122.89 15.5444 122.445 15.9889C122.001 16.4333 121.468 16.6556 120.845 16.6556ZM122.401 21.2333V45.5H119.29V21.2333H122.401ZM151.402 32.1222C151.402 33.1889 151.372 34.0037 151.313 34.5667H131.18C131.268 36.4037 131.713 37.9741 132.513 39.2778C133.313 40.5815 134.365 41.5741 135.668 42.2556C136.972 42.9074 138.394 43.2333 139.935 43.2333C141.95 43.2333 143.639 42.7444 145.002 41.7667C146.394 40.7889 147.313 39.4704 147.757 37.8111H151.046C150.454 40.1815 149.18 42.1222 147.224 43.6333C145.298 45.1148 142.868 45.8556 139.935 45.8556C137.654 45.8556 135.609 45.3519 133.802 44.3444C131.994 43.3074 130.572 41.8556 129.535 39.9889C128.528 38.0926 128.024 35.8852 128.024 33.3667C128.024 30.8481 128.528 28.6407 129.535 26.7444C130.542 24.8481 131.95 23.3963 133.757 22.3889C135.565 21.3815 137.624 20.8778 139.935 20.8778C142.246 20.8778 144.261 21.3815 145.98 22.3889C147.728 23.3963 149.061 24.7593 149.98 26.4778C150.928 28.1667 151.402 30.0481 151.402 32.1222ZM148.246 32.0333C148.276 30.2259 147.905 28.6852 147.135 27.4111C146.394 26.137 145.372 25.1741 144.068 24.5222C142.765 23.8704 141.342 23.5444 139.802 23.5444C137.491 23.5444 135.52 24.2852 133.891 25.7667C132.261 27.2481 131.357 29.337 131.18 32.0333H148.246ZM160.205 25.5444C160.886 24.0333 161.923 22.863 163.316 22.0333C164.738 21.2037 166.472 20.7889 168.516 20.7889V24.0333H167.672C165.42 24.0333 163.612 24.6407 162.249 25.8556C160.886 27.0704 160.205 29.1 160.205 31.9444V45.5H157.094V21.2333H160.205V25.5444Z" fill="white"/>
<circle cx="8.8463" cy="8.93383" r="8.8463" fill="#6AEEC6"/>
<circle cx="8.8463" cy="8.93383" r="8.8463" fill="url(#paint0_linear_319_17221)"/>
<defs>
<linearGradient id="paint0_linear_319_17221" x1="1.78839" y1="0.087525" x2="17.2259" y2="1.19158" gradientUnits="userSpaceOnUse">
<stop stop-color="#6AEEC6"/>
<stop offset="1" stop-color="#248866"/>
</linearGradient>
</defs>
</svg>
