<svg width="26" height="26" viewBox="0 0 26 26" fill="none" xmlns="http://www.w3.org/2000/svg">
<g clip-path="url(#clip0_3372_4775)">
<path d="M13.3751 24.0094C12.6923 24.0094 12.049 23.6812 11.5938 23.1094L10.1095 21.2344C10.0798 21.1969 9.96102 21.15 9.91154 21.1406H9.41675C5.29019 21.1406 2.73706 20.0812 2.73706 14.8125V10.125C2.73706 5.98125 5.04279 3.79688 9.41675 3.79688H17.3334C21.7074 3.79688 24.0131 5.98125 24.0131 10.125V14.8125C24.0131 18.9563 21.7074 21.1406 17.3334 21.1406H16.8386C16.7595 21.1406 16.6902 21.1781 16.6407 21.2344L15.1563 23.1094C14.7011 23.6812 14.0579 24.0094 13.3751 24.0094ZM9.41675 5.20312C5.87404 5.20312 4.22144 6.76875 4.22144 10.125V14.8125C4.22144 19.05 5.75529 19.7344 9.41675 19.7344H9.91154C10.4162 19.7344 10.9902 20.0063 11.297 20.3906L12.7813 22.2656C13.1277 22.6969 13.6225 22.6969 13.9688 22.2656L15.4532 20.3906C15.7798 19.9781 16.2944 19.7344 16.8386 19.7344H17.3334C20.8761 19.7344 22.5287 18.1687 22.5287 14.8125V10.125C22.5287 6.76875 20.8761 5.20312 17.3334 5.20312H9.41675Z" fill="white"/>
<path d="M13.3751 13.875C12.8209 13.875 12.3855 13.4531 12.3855 12.9375C12.3855 12.4219 12.8308 12 13.3751 12C13.9194 12 14.3647 12.4219 14.3647 12.9375C14.3647 13.4531 13.9292 13.875 13.3751 13.875Z" fill="white"/>
<path d="M17.3333 13.875C16.7792 13.875 16.3438 13.4531 16.3438 12.9375C16.3438 12.4219 16.7891 12 17.3333 12C17.8776 12 18.3229 12.4219 18.3229 12.9375C18.3229 13.4531 17.8875 13.875 17.3333 13.875Z" fill="white"/>
<path d="M9.41659 13.875C8.86242 13.875 8.427 13.4531 8.427 12.9375C8.427 12.4219 8.87231 12 9.41659 12C9.96086 12 10.4062 12.4219 10.4062 12.9375C10.4062 13.4531 9.97075 13.875 9.41659 13.875Z" fill="white"/>
</g>
<defs>
<clipPath id="clip0_3372_4775">
<rect width="25" height="25" fill="white" transform="translate(0.5 0.5)"/>
</clipPath>
</defs>
</svg>
