<svg width="20" height="20" viewBox="0 0 20 20" fill="none" xmlns="http://www.w3.org/2000/svg">
<path fill-rule="evenodd" clip-rule="evenodd" d="M10 3.33366C9.11594 3.33366 8.2681 3.68485 7.64298 4.30997C7.01786 4.93509 6.66667 5.78294 6.66667 6.66699C6.66667 7.55105 7.01786 8.39889 7.64298 9.02401C8.2681 9.64914 9.11594 10.0003 10 10.0003C10.8841 10.0003 11.7319 9.64914 12.357 9.02401C12.9821 8.39889 13.3333 7.55105 13.3333 6.66699C13.3333 5.78294 12.9821 4.93509 12.357 4.30997C11.7319 3.68485 10.8841 3.33366 10 3.33366ZM5 6.66699C5 5.34091 5.52678 4.06914 6.46447 3.13146C7.40215 2.19378 8.67392 1.66699 10 1.66699C11.3261 1.66699 12.5979 2.19378 13.5355 3.13146C14.4732 4.06914 15 5.34091 15 6.66699C15 7.99307 14.4732 9.26484 13.5355 10.2025C12.5979 11.1402 11.3261 11.667 10 11.667C8.67392 11.667 7.40215 11.1402 6.46447 10.2025C5.52678 9.26484 5 7.99307 5 6.66699ZM4.84417 13.8478C6.2025 12.9978 8.0275 12.5003 10 12.5003C11.9725 12.5003 13.7975 12.9987 15.1558 13.8478C16.5025 14.6895 17.5 15.9587 17.5 17.5003C17.5 17.7213 17.4122 17.9333 17.2559 18.0896C17.0996 18.2459 16.8877 18.3337 16.6667 18.3337C16.4457 18.3337 16.2337 18.2459 16.0774 18.0896C15.9211 17.9333 15.8333 17.7213 15.8333 17.5003C15.8333 16.7412 15.3383 15.927 14.2725 15.2603C13.2183 14.6028 11.71 14.167 10 14.167C8.29 14.167 6.78167 14.602 5.7275 15.2612C4.66083 15.9262 4.16667 16.7403 4.16667 17.5003C4.16667 17.7213 4.07887 17.9333 3.92259 18.0896C3.76631 18.2459 3.55435 18.3337 3.33333 18.3337C3.11232 18.3337 2.90036 18.2459 2.74408 18.0896C2.5878 17.9333 2.5 17.7213 2.5 17.5003C2.5 15.9587 3.4975 14.6895 4.84417 13.8478Z" fill="white"/>
</svg>
