<svg width="19" height="20" viewBox="0 0 19 20" fill="none" xmlns="http://www.w3.org/2000/svg">
<g clip-path="url(#clip0_1630_2856)">
<path d="M18.4825 14.4441L15.8309 11.7926C14.884 10.8456 13.2741 11.2244 12.8953 12.4555C12.6113 13.3078 11.6643 13.7812 10.812 13.5918C8.91809 13.1183 6.36128 10.6562 5.8878 8.66759C5.60371 7.81528 6.17189 6.86831 7.02416 6.58426C8.25521 6.20547 8.634 4.59563 7.68703 3.64866L5.03553 0.997158C4.27795 0.334281 3.14159 0.334281 2.47872 0.997158L0.679479 2.79639C-1.11976 4.69033 0.868873 9.70925 5.31962 14.16C9.77036 18.6107 14.7893 20.6941 16.6832 18.8001L18.4825 17.0009C19.1454 16.2433 19.1454 15.107 18.4825 14.4441Z" fill="white"/>
</g>
<defs>
<clipPath id="clip0_1630_2856">
<rect width="19" height="19" fill="white" transform="translate(0 0.5)"/>
</clipPath>
</defs>
</svg>
