<svg width="14" height="14" viewBox="0 0 14 14" fill="none" xmlns="http://www.w3.org/2000/svg">
<path d="M0.418374 12.9187C0.235411 13.1019 0.235561 13.3987 0.418711 13.5816C0.601861 13.7646 0.898661 13.7644 1.08162 13.5813L0.418374 12.9187ZM3.98989 10.6701C4.17285 10.4869 4.1727 10.1901 3.98955 10.0071C3.8064 9.8242 3.5096 9.82432 3.32664 10.0075L3.98989 10.6701ZM9.16175 2.92517L11.0881 4.85356L11.7514 4.19099L9.825 2.2626L9.16175 2.92517ZM5.2931 11.3118L2.72018 8.73632L2.05693 9.39889L4.62986 11.9745L5.2931 11.3118ZM10.3145 8.43264L9.11625 8.88282L9.446 9.76045L10.6442 9.31026L10.3145 8.43264ZM5.14776 4.89988L5.58179 3.71525L4.70152 3.39272L4.26749 4.57736L5.14776 4.89988ZM3.27774 6.62282C3.72239 6.5002 4.06074 6.41407 4.33742 6.21489L3.78966 5.45405C3.68158 5.53187 3.54125 5.57769 3.02856 5.71904L3.27774 6.62282ZM4.26749 4.57736C4.08439 5.07709 4.02711 5.21347 3.94062 5.31496L4.65415 5.92301C4.87525 5.66361 4.98894 5.33337 5.14776 4.89988L4.26749 4.57736ZM4.33742 6.21489C4.45435 6.1307 4.5607 6.0327 4.65415 5.92301L3.94062 5.31496C3.89606 5.36724 3.84537 5.41394 3.78966 5.45405L4.33742 6.21489ZM9.11625 8.88282C8.68562 9.04464 8.35725 9.1607 8.1 9.38345L8.71375 10.0922C8.81425 10.0051 8.9495 9.94701 9.446 9.76045L9.11625 8.88282ZM8.31481 11.0001C8.45562 10.4883 8.50131 10.3481 8.57894 10.2399L7.81719 9.69339C7.61887 9.96982 7.53306 10.3074 7.41087 10.7514L8.31481 11.0001ZM8.1 9.38345C7.99394 9.47532 7.899 9.57932 7.81719 9.69339L8.57894 10.2399C8.61794 10.1855 8.66319 10.1359 8.71375 10.0922L8.1 9.38345ZM2.72018 8.73632C2.31634 8.33207 2.04249 8.05689 1.86479 7.83364C1.68647 7.60957 1.66805 7.51257 1.66778 7.46907L0.730299 7.47501C0.732592 7.83889 0.913292 8.14357 1.13126 8.41745C1.34985 8.69207 1.66947 9.01101 2.05693 9.39889L2.72018 8.73632ZM3.02856 5.71904C2.5003 5.8647 2.06497 5.98395 1.73935 6.1147C1.41463 6.24501 1.10697 6.42076 0.92533 6.73614L1.73774 7.20401C1.75937 7.16645 1.82308 7.09126 2.08862 6.9847C2.35327 6.87845 2.7271 6.77464 3.27774 6.62282L3.02856 5.71904ZM1.66778 7.46907C1.66719 7.37601 1.69135 7.28457 1.73774 7.20401L0.92533 6.73614C0.795961 6.96076 0.728661 7.21576 0.730299 7.47501L1.66778 7.46907ZM4.62986 11.9745C5.01977 12.3648 5.3404 12.6867 5.61654 12.9066C5.89187 13.1259 6.19869 13.3076 6.56506 13.3082L6.5665 12.3707C6.52306 12.3706 6.42587 12.3528 6.20062 12.1733C5.97612 11.9945 5.69952 11.7187 5.2931 11.3118L4.62986 11.9745ZM7.41087 10.7514C7.25831 11.3061 7.15387 11.6828 7.04694 11.9493C6.93956 12.2167 6.86381 12.2804 6.82594 12.3021L7.29062 13.1163C7.60875 12.9348 7.78581 12.6253 7.91694 12.2985C8.0485 11.9708 8.16837 11.5323 8.31481 11.0001L7.41087 10.7514ZM6.56506 13.3082C6.8195 13.3086 7.06962 13.2424 7.29062 13.1163L6.82594 12.3021C6.74687 12.3472 6.65744 12.3708 6.5665 12.3707L6.56506 13.3082ZM11.0881 4.85356C11.7528 5.5189 12.2127 5.98095 12.4948 6.36176C12.7721 6.73589 12.8039 6.93495 12.7701 7.09151L13.6864 7.28964C13.8051 6.74089 13.5864 6.26014 13.2481 5.80357C12.9147 5.35371 12.3941 4.8343 11.7514 4.19099L11.0881 4.85356ZM10.6442 9.31026C11.4951 8.99057 12.1837 8.73314 12.6732 8.46151C13.1699 8.18582 13.5677 7.83851 13.6864 7.28964L12.7701 7.09151C12.7362 7.24801 12.6251 7.41595 12.2182 7.64176C11.8041 7.87164 11.1945 8.10201 10.3145 8.43264L10.6442 9.31026ZM9.825 2.2626C9.17756 1.61451 8.65506 1.08972 8.20287 0.753999C7.74425 0.413543 7.26094 0.193212 6.70981 0.314805L6.91175 1.23029C7.06787 1.19586 7.26731 1.22707 7.644 1.50673C8.02706 1.79113 8.49225 2.25502 9.16175 2.92517L9.825 2.2626ZM5.58179 3.71525C5.90781 2.82548 6.13506 2.20878 6.36325 1.78948C6.58762 1.37712 6.75562 1.26474 6.91175 1.23029L6.70981 0.314805C6.15875 0.43638 5.81281 0.839587 5.53976 1.34137C5.27049 1.83622 5.0168 2.53222 4.70152 3.39272L5.58179 3.71525ZM1.08162 13.5813L3.98989 10.6701L3.32664 10.0075L0.418374 12.9187L1.08162 13.5813Z" fill="#DCDCDC"/>
</svg>
