<svg width="18" height="6" viewBox="0 0 18 6" fill="none" xmlns="http://www.w3.org/2000/svg">
<path d="M2.25 5.46985C1.00781 5.46985 -1.52649e-07 4.46204 -9.83506e-08 3.21985C-4.40527e-08 1.97766 1.00781 0.969848 2.25 0.969848C3.49219 0.969848 4.5 1.97766 4.5 3.21985C4.5 4.46204 3.49219 5.46985 2.25 5.46985ZM13.5 3.21985C13.5 4.46204 14.5078 5.46985 15.75 5.46985C16.9922 5.46985 18 4.46204 18 3.21985C18 1.97766 16.9922 0.969849 15.75 0.969849C14.5078 0.969848 13.5 1.97766 13.5 3.21985ZM11.25 3.21985C11.25 1.97766 10.2422 0.969848 9 0.969848C7.75781 0.969848 6.75 1.97766 6.75 3.21985C6.75 4.46204 7.75781 5.46985 9 5.46985C10.2422 5.46985 11.25 4.46204 11.25 3.21985Z" fill="#DDDDDD"/>
</svg>
