<svg width="17" height="13" viewBox="0 0 17 13" fill="none" xmlns="http://www.w3.org/2000/svg">
<path fill-rule="evenodd" clip-rule="evenodd" d="M6.5303 0.969668C6.8232 1.26256 6.8232 1.73744 6.5303 2.03033L2.81066 5.75H11C11.9534 5.75 13.3667 6.0298 14.5632 6.8913C15.798 7.7804 16.75 9.2556 16.75 11.5C16.75 11.9142 16.4142 12.25 16 12.25C15.5858 12.25 15.25 11.9142 15.25 11.5C15.25 9.7444 14.5353 8.7196 13.6868 8.1087C12.8 7.4702 11.7133 7.25 11 7.25H2.81066L6.5303 10.9697C6.8232 11.2626 6.8232 11.7374 6.5303 12.0303C6.23744 12.3232 5.76256 12.3232 5.46967 12.0303L0.469668 7.0303C0.176777 6.7374 0.176777 6.2626 0.469668 5.9697L5.46967 0.969668C5.76256 0.676777 6.23744 0.676777 6.5303 0.969668Z" fill="#7B7B7B"/>
</svg>
