<svg width="20" height="24" viewBox="0 0 20 24" fill="none" xmlns="http://www.w3.org/2000/svg">
<path d="M10 10.5C9.0111 10.5 8.0444 10.2068 7.22215 9.65735C6.39991 9.10794 5.75904 8.32705 5.3806 7.41342C5.00217 6.49979 4.90315 5.49446 5.09608 4.52455C5.289 3.55465 5.76521 2.66373 6.46447 1.96447C7.16373 1.26521 8.05465 0.789002 9.02455 0.596076C9.99446 0.40315 10.9998 0.502166 11.9134 0.880605C12.827 1.25904 13.6079 1.89991 14.1574 2.72215C14.7068 3.5444 15 4.5111 15 5.5C15 6.82609 14.4732 8.09785 13.5355 9.03554C12.5979 9.97322 11.3261 10.5 10 10.5ZM10 2.5C9.40666 2.5 8.82664 2.67595 8.33329 3.00559C7.83994 3.33524 7.45543 3.80377 7.22836 4.35195C7.0013 4.90013 6.94189 5.50333 7.05765 6.08527C7.1734 6.66722 7.45912 7.20177 7.87868 7.62132C8.29824 8.04088 8.83279 8.3266 9.41473 8.44236C9.99667 8.55811 10.5999 8.4987 11.1481 8.27164C11.6962 8.04458 12.1648 7.66006 12.4944 7.16671C12.8241 6.67337 13 6.09335 13 5.5C13 4.70435 12.6839 3.94129 12.1213 3.37868C11.5587 2.81607 10.7957 2.5 10 2.5Z" fill="white"/>
<path d="M19 23.5H1C0.734784 23.5 0.48043 23.3946 0.292893 23.2071C0.105357 23.0196 0 22.7652 0 22.5V19.5C0 17.3783 0.842855 15.3434 2.34315 13.8431C3.84344 12.3429 5.87827 11.5 8 11.5H12C14.1217 11.5 16.1566 12.3429 17.6569 13.8431C19.1571 15.3434 20 17.3783 20 19.5V22.5C20 22.7652 19.8946 23.0196 19.7071 23.2071C19.5196 23.3946 19.2652 23.5 19 23.5ZM2 21.5H18V19.5C18 17.9087 17.3679 16.3826 16.2426 15.2574C15.1174 14.1321 13.5913 13.5 12 13.5H8C6.4087 13.5 4.88258 14.1321 3.75736 15.2574C2.63214 16.3826 2 17.9087 2 19.5V21.5Z" fill="white"/>
</svg>
