<svg width="14" height="15" viewBox="0 0 14 15" fill="none" xmlns="http://www.w3.org/2000/svg">
<path fill-rule="evenodd" clip-rule="evenodd" d="M10.0304 11.4981C8.98947 12.3793 7.64289 12.9107 6.1722 12.9107C2.87233 12.9107 0.197266 10.2356 0.197266 6.93576C0.197266 3.63589 2.87233 0.960815 6.1722 0.960815C9.47207 0.960815 12.1471 3.63589 12.1471 6.93576C12.1471 8.40644 11.6158 9.75302 10.7346 10.794L13.1297 13.1891C13.3242 13.3836 13.3242 13.6988 13.1297 13.8933C12.9353 14.0877 12.62 14.0877 12.4256 13.8933L10.0304 11.4981ZM11.1513 6.93576C11.1513 9.68565 8.92209 11.9149 6.1722 11.9149C3.42231 11.9149 1.19309 9.68565 1.19309 6.93576C1.19309 4.18587 3.42231 1.95664 6.1722 1.95664C8.92209 1.95664 11.1513 4.18587 11.1513 6.93576Z" fill="#687684"/>
</svg>
