<svg width="22" height="22" viewBox="0 0 22 22" fill="none" xmlns="http://www.w3.org/2000/svg">
<path fill-rule="evenodd" clip-rule="evenodd" d="M11 7.25C8.92894 7.25 7.25 8.92893 7.25 11C7.25 13.0711 8.92894 14.75 11 14.75C13.0711 14.75 14.75 13.0711 14.75 11C14.75 8.92893 13.0711 7.25 11 7.25ZM8.75 11C8.75 9.7574 9.7574 8.75 11 8.75C12.2426 8.75 13.25 9.7574 13.25 11C13.25 12.2426 12.2426 13.25 11 13.25C9.7574 13.25 8.75 12.2426 8.75 11Z" fill="#E6E6E6"/>
<path fill-rule="evenodd" clip-rule="evenodd" d="M10.9742 0.25C10.5298 0.24999 10.1587 0.24999 9.85411 0.27077C9.53701 0.29241 9.23751 0.33905 8.94712 0.45933C8.2733 0.73844 7.73794 1.27379 7.45883 1.94762C7.31353 2.29842 7.27418 2.66812 7.25915 3.06996C7.24707 3.39299 7.08405 3.66251 6.84346 3.80141C6.60288 3.94031 6.28796 3.94673 6.00217 3.79568C5.64665 3.60777 5.3068 3.45699 4.93034 3.40743C4.20724 3.31223 3.47593 3.50819 2.8973 3.95219C2.64794 4.14353 2.45778 4.3796 2.2805 4.6434C2.11019 4.89681 1.92468 5.21815 1.70245 5.60307L1.6772 5.64681C1.45496 6.03172 1.26944 6.35304 1.13513 6.62723C0.995323 6.91267 0.885953 7.19539 0.844923 7.50701C0.749723 8.23012 0.945683 8.96142 1.38967 9.5401C1.62079 9.8412 1.92124 10.0602 2.26168 10.2741C2.53546 10.4461 2.68739 10.7221 2.68737 11C2.68736 11.2778 2.53543 11.5538 2.26168 11.7258C1.9212 11.9397 1.62072 12.1587 1.38958 12.4599C0.945583 13.0385 0.749633 13.7698 0.844823 14.4929C0.885853 14.8045 0.995223 15.0873 1.13503 15.3727C1.26934 15.6469 1.45486 15.9682 1.67709 16.3531L1.70235 16.3969C1.92458 16.7818 2.11009 17.1031 2.2804 17.3565C2.45768 17.6203 2.64784 17.8564 2.8972 18.0477C3.47583 18.4917 4.20714 18.6877 4.93024 18.5925C5.30668 18.5429 5.64651 18.3922 6.00201 18.2043C6.28784 18.0532 6.6028 18.0596 6.84341 18.1986C7.08403 18.3375 7.24707 18.607 7.25915 18.9301C7.27418 19.3319 7.31354 19.7016 7.45883 20.0524C7.73794 20.7262 8.2733 21.2616 8.94712 21.5407C9.23751 21.661 9.53701 21.7076 9.85411 21.7292C10.1587 21.75 10.5298 21.75 10.9742 21.75H11.0247C11.4692 21.75 11.8402 21.75 12.1449 21.7292C12.462 21.7076 12.7615 21.661 13.0519 21.5407C13.7257 21.2616 14.2611 20.7262 14.5402 20.0524C14.6855 19.7016 14.7248 19.3319 14.7398 18.93C14.7519 18.607 14.9149 18.3375 15.1555 18.1985C15.3961 18.0596 15.7111 18.0532 15.9969 18.2042C16.3524 18.3921 16.6922 18.5429 17.0687 18.5924C17.7918 18.6876 18.5231 18.4917 19.1017 18.0477C19.3511 17.8563 19.5412 17.6203 19.7185 17.3565C19.8888 17.1031 20.0743 16.7818 20.2965 16.3969L20.3218 16.3531C20.544 15.9682 20.7296 15.6468 20.8639 15.3726C21.0037 15.0872 21.113 14.8045 21.1541 14.4929C21.2493 13.7697 21.0533 13.0384 20.6093 12.4598C20.3782 12.1586 20.0777 11.9397 19.7373 11.7258C19.4635 11.5538 19.3116 11.2778 19.3116 10.9999C19.3116 10.7221 19.4635 10.4462 19.7372 10.2742C20.0778 10.0603 20.3783 9.8414 20.6094 9.5401C21.0534 8.96149 21.2494 8.23019 21.1542 7.50708C21.1131 7.19546 21.0038 6.91274 20.864 6.6273C20.7297 6.35313 20.5442 6.03183 20.3219 5.64695L20.2967 5.60318C20.0744 5.21825 19.8889 4.89688 19.7186 4.64347C19.5413 4.37967 19.3512 4.1436 19.1018 3.95225C18.5232 3.50826 17.7919 3.3123 17.0687 3.4075C16.6923 3.45706 16.3525 3.60782 15.997 3.79572C15.7112 3.94679 15.3962 3.94036 15.1556 3.80144C14.915 3.66253 14.7519 3.39297 14.7398 3.06991C14.7248 2.66808 14.6855 2.2984 14.5402 1.94762C14.2611 1.27379 13.7257 0.73844 13.0519 0.45933C12.7615 0.33905 12.462 0.29241 12.1449 0.27077C11.8402 0.24999 11.4692 0.24999 11.0247 0.25H10.9742ZM9.52111 1.84515C9.59831 1.81319 9.71551 1.78372 9.95621 1.76729C10.2037 1.75041 10.5233 1.75 10.9995 1.75C11.4757 1.75 11.7953 1.75041 12.0427 1.76729C12.2835 1.78372 12.4007 1.81319 12.4778 1.84515C12.7841 1.97202 13.0275 2.21536 13.1543 2.52165C13.1944 2.61826 13.2275 2.76887 13.2409 3.12597C13.2705 3.91835 13.6795 4.68129 14.4056 5.10048C15.1316 5.51968 15.9969 5.4924 16.6979 5.12188C17.0138 4.9549 17.1609 4.90832 17.2645 4.89467C17.5932 4.8514 17.9256 4.94047 18.1886 5.14228C18.2549 5.19312 18.339 5.27989 18.4736 5.48016C18.612 5.68603 18.7721 5.9626 19.0102 6.375C19.2483 6.78741 19.4078 7.06438 19.5169 7.28713C19.623 7.50382 19.6561 7.62007 19.667 7.70287C19.7103 8.03155 19.6212 8.36397 19.4194 8.62698C19.3557 8.70995 19.2419 8.81399 18.9392 9.0041C18.2679 9.426 17.8117 10.1616 17.8116 10.9999C17.8116 11.8383 18.2678 12.574 18.9392 12.9959C19.2418 13.186 19.3556 13.29 19.4193 13.373C19.6211 13.636 19.7102 13.9684 19.6669 14.2971C19.656 14.3799 19.6229 14.4961 19.5168 14.7128C19.4077 14.9355 19.2482 15.2125 19.0101 15.6249C18.772 16.0373 18.6119 16.3139 18.4735 16.5198C18.3389 16.72 18.2548 16.8068 18.1885 16.8576C17.9255 17.0595 17.5931 17.1485 17.2644 17.1053C17.1608 17.0916 17.0137 17.045 16.6978 16.8781C15.9968 16.5075 15.1315 16.4803 14.4054 16.8995C13.6795 17.3187 13.2705 18.0816 13.2409 18.874C13.2275 19.2311 13.1944 19.3817 13.1543 19.4784C13.0275 19.7846 12.7841 20.028 12.4778 20.1549C12.4007 20.1868 12.2835 20.2163 12.0427 20.2327C11.7953 20.2496 11.4757 20.25 10.9995 20.25C10.5233 20.25 10.2037 20.2496 9.95621 20.2327C9.71551 20.2163 9.59831 20.1868 9.52111 20.1549C9.21491 20.028 8.97152 19.7846 8.84465 19.4784C8.80463 19.3817 8.77146 19.2311 8.7581 18.874C8.72847 18.0817 8.31948 17.3187 7.59341 16.8995C6.86735 16.4803 6.00213 16.5076 5.30109 16.8781C4.98516 17.0451 4.83814 17.0917 4.73446 17.1053C4.40577 17.1486 4.07336 17.0595 3.81035 16.8577C3.74409 16.8069 3.65996 16.7201 3.52537 16.5198C3.38702 16.314 3.22687 16.0374 2.98877 15.625C2.75066 15.2126 2.59122 14.9356 2.48211 14.7129C2.37597 14.4962 2.34289 14.3799 2.33199 14.2971C2.28872 13.9684 2.37779 13.636 2.57961 13.373C2.64327 13.2901 2.75712 13.186 3.05971 12.9959C3.73109 12.5741 4.18733 11.8384 4.18737 11.0001C4.18742 10.1616 3.73116 9.4259 3.05972 9.004C2.7572 8.81389 2.64336 8.70987 2.5797 8.62691C2.37789 8.3639 2.28882 8.03149 2.33209 7.7028C2.34299 7.62001 2.37607 7.50375 2.48221 7.28707C2.59132 7.06431 2.75076 6.78734 2.98886 6.37493C3.22697 5.96253 3.38711 5.68596 3.52547 5.48009C3.66006 5.27983 3.74419 5.19305 3.81044 5.14222C4.07346 4.9404 4.40587 4.85133 4.73455 4.8946C4.83824 4.90825 4.98527 4.95483 5.30124 5.12184C6.00224 5.49235 6.86742 5.51962 7.59345 5.10045C8.31949 4.68128 8.72847 3.91837 8.7581 3.12602C8.77146 2.76889 8.80463 2.61827 8.84465 2.52165C8.97152 2.21536 9.21491 1.97202 9.52111 1.84515Z" fill="#E6E6E6"/>
</svg>
