<svg width="16" height="14" viewBox="0 0 16 14" fill="none" xmlns="http://www.w3.org/2000/svg">
<path d="M15.2803 6.68956L9.28025 0.689561C9.17536 0.584704 9.04174 0.513299 8.89627 0.484373C8.75081 0.455448 8.60003 0.4703 8.46301 0.527052C8.32598 0.583805 8.20886 0.67991 8.12645 0.803217C8.04404 0.926524 8.00003 1.0715 8 1.21981V3.87856C5.95122 4.06816 4.04692 5.01546 2.65977 6.53508C1.27262 8.05471 0.502454 10.0373 0.5 12.0948V13.2198C0.500118 13.3755 0.548682 13.5273 0.638956 13.6541C0.729229 13.781 0.856737 13.8766 1.00379 13.9277C1.15085 13.9788 1.31017 13.9829 1.45965 13.9393C1.60913 13.8958 1.74136 13.8069 1.838 13.6848C2.57277 12.811 3.47432 12.0924 4.48996 11.571C5.5056 11.0496 6.61497 10.7359 7.75325 10.6481C7.79075 10.6436 7.8845 10.6361 8 10.6286V13.2198C8.00003 13.3681 8.04404 13.5131 8.12645 13.6364C8.20886 13.7597 8.32598 13.8558 8.46301 13.9126C8.60003 13.9693 8.75081 13.9842 8.89627 13.9552C9.04174 13.9263 9.17536 13.8549 9.28025 13.7501L15.2803 7.75006C15.4209 7.60942 15.4998 7.41868 15.4998 7.21981C15.4998 7.02094 15.4209 6.83021 15.2803 6.68956ZM9.5 11.4093V9.84481C9.5 9.6459 9.42098 9.45513 9.28033 9.31448C9.13968 9.17383 8.94891 9.09481 8.75 9.09481C8.55875 9.09481 7.778 9.13231 7.5785 9.15856C5.55715 9.34481 3.63306 10.1128 2.039 11.3696C2.21993 9.71539 3.00465 8.18607 4.24292 7.07443C5.48118 5.96279 7.08596 5.34695 8.75 5.34481C8.94891 5.34481 9.13968 5.26579 9.28033 5.12514C9.42098 4.98449 9.5 4.79372 9.5 4.59481V3.03031L13.6895 7.21981L9.5 11.4093Z" fill="#7B7B7B"/>
</svg>
