<svg width="24" height="24" viewBox="0 0 24 24" fill="none" xmlns="http://www.w3.org/2000/svg">
<path d="M22.7954 4.56119L12.2954 0.0611853C12.202 0.0214543 12.1015 0.000976562 11.9999 0.000976562C11.8984 0.000976562 11.7979 0.0214543 11.7044 0.0611853L1.20444 4.56119C1.06351 4.62138 0.944394 4.7233 0.863136 4.85323C0.781877 4.98317 0.742373 5.13487 0.749938 5.28794L0.989938 10.0992C1.15367 13.2369 2.27593 16.249 4.2053 18.7289C6.13466 21.2088 8.77827 23.0372 11.7794 23.9674C11.9231 24.0116 12.0768 24.0116 12.2204 23.9674C15.2214 23.0369 17.8647 21.2084 19.7939 18.7285C21.7231 16.2487 22.8453 13.2368 23.0092 10.0992L23.2499 5.28794C23.2575 5.13487 23.218 4.98317 23.1367 4.85323C23.0555 4.7233 22.9364 4.62138 22.7954 4.56119ZM21.5107 10.0242C21.3651 12.815 20.3788 15.4965 18.6815 17.7166C16.9841 19.9367 14.6549 21.5915 11.9999 22.4637C9.34493 21.5915 7.01579 19.9367 5.31841 17.7166C3.62104 15.4965 2.63478 12.815 2.48919 10.0242L2.27469 5.73494L11.9999 1.56644L21.7252 5.73494L21.5107 10.0242Z" fill="white"/>
<path d="M8.02982 11.4703C7.88837 11.3337 7.69892 11.2581 7.50227 11.2598C7.30562 11.2615 7.11751 11.3404 6.97846 11.4794C6.8394 11.6185 6.76053 11.8066 6.75882 12.0032C6.75711 12.1999 6.8327 12.3893 6.96932 12.5308L9.96932 15.5308C10.11 15.6714 10.3007 15.7504 10.4996 15.7504C10.6984 15.7504 10.8892 15.6714 11.0298 15.5308L17.0298 9.5308C17.1664 9.38935 17.242 9.1999 17.2403 9.00325C17.2386 8.8066 17.1597 8.61849 17.0207 8.47944C16.8816 8.34038 16.6935 8.2615 16.4969 8.25979C16.3002 8.25809 16.1108 8.33368 15.9693 8.4703L10.4996 13.94L8.02982 11.4703Z" fill="white"/>
</svg>
