<svg width="259" height="259" viewBox="0 0 259 259" fill="none" xmlns="http://www.w3.org/2000/svg">
<g clip-path="url(#clip0_319_17182)">
<path d="M250.856 191.966C240.063 207.104 247.775 196.287 212.729 245.445C212.729 245.445 197.377 271.924 171.283 250.819L8.95917 80.248C8.95917 80.248 -1.78291 60.676 16.2506 50.1262C88.9011 21.3155 72.7391 27.7256 94.154 19.2297C94.154 19.2297 107.583 14.4384 127.919 38.994C145.095 59.7309 225.317 148.31 249.884 175.388C254.065 179.998 254.472 186.9 250.856 191.966Z" fill="#313163"/>
<path d="M242.543 203.625L212.729 245.445C212.729 245.445 197.377 271.924 171.283 250.819L8.95917 80.248C8.95917 80.248 -1.78291 60.676 16.2506 50.1262L78.0326 25.6255C99.0058 67.8575 153.409 160.975 242.543 203.625Z" fill="#242454"/>
<path d="M238.554 189.421C231.747 198.967 203.324 238.837 203.289 238.901C200.052 244.247 192.563 244.95 188.343 240.34L31.443 68.857C27.0088 64.0052 28.8 56.2083 34.9156 53.7852L42.9763 50.5928L47.6962 54.6094C49.6221 56.2481 51.9773 57.3006 54.4829 57.6425C56.9884 57.9843 59.5395 57.601 61.834 56.538L82.5214 46.9553C88.165 44.3382 91.2728 38.1221 89.8623 31.9878L94.0492 30.3284C94.0492 30.3284 106.429 25.9162 125.171 48.5542C141.023 67.6867 215.146 149.53 237.674 174.36C239.518 176.393 240.61 178.996 240.77 181.736C240.93 184.475 240.148 187.187 238.554 189.421Z" fill="#79A9B4"/>
<path d="M232.18 198.361C202.527 239.959 203.328 238.83 203.289 238.901C200.052 244.247 192.563 244.951 188.343 240.341L31.443 68.8576C27.0088 64.0058 28.8 56.2089 34.9156 53.7857L42.9763 50.5933L47.6962 54.6099C49.6221 56.2486 51.9773 57.3012 54.4829 57.643C56.9884 57.9848 59.5395 57.6015 61.834 56.5385L82.5214 46.9558C84.4171 46.0767 86.016 44.7964 87.2578 43.2634C111.715 87.8362 159.771 159.421 232.18 198.361Z" fill="#5DA1B5"/>
<path d="M84.7912 228.626C71.7985 255.803 40.8394 267.62 19.0915 252.066C2.14044 239.918 -3.09598 214.395 7.71753 191.773C18.542 169.146 41.6966 157.195 61.7961 162.772C87.6792 169.97 97.7345 201.565 84.7912 228.626Z" fill="#A89028"/>
<path d="M73.1645 223.065C62.3455 245.692 39.1855 257.643 19.0915 252.066C2.14044 239.917 -3.09598 214.394 7.71753 191.773C18.542 169.146 41.6966 157.195 61.7961 162.772C78.7471 174.916 83.9835 200.444 73.1645 223.065Z" fill="#B29D35"/>
<path d="M58.2414 217.672C66.4246 200.546 63.2298 181.967 51.1055 176.173C38.9812 170.38 22.5188 179.567 14.3356 196.692C6.15235 213.818 9.34722 232.398 21.4715 238.191C33.5958 243.984 50.0582 234.798 58.2414 217.672Z" fill="#A89028"/>
<path d="M231.334 153.805C231.35 155.734 230.96 157.64 230.186 159.41C220.867 180.592 202.311 199.757 188.151 212.268C180.283 219.218 167.835 215.067 165.739 204.807C150.414 130.09 111.66 94.9353 91.9891 81.4623C85.6263 77.1051 84.1537 68.2806 88.7802 62.1101C105.638 39.6287 128.073 18.772 150.661 2.56439C156.442 -1.57859 164.442 -0.611526 169.035 4.81721C227.174 73.4725 231.191 139.327 231.334 153.805Z" fill="#44A570"/>
<path d="M231.334 153.805C231.35 155.734 230.96 157.64 230.185 159.41C220.866 180.592 202.311 199.757 188.151 212.268C182.222 217.505 173.689 216.444 168.947 211.197C188.607 124.035 162.843 42.3788 147.584 4.80622C148.661 4.00949 149.688 3.26222 150.661 2.56439C156.441 -1.57859 164.442 -0.611526 169.035 4.81721C227.174 73.4725 231.191 139.327 231.334 153.805Z" fill="#00956C"/>
<path d="M214.767 155.294C207.52 166.327 198.184 176.091 190.481 183.224C186.499 172.231 171.432 173.773 171.255 173.591C158.447 128.222 130.122 96.5012 113.44 80.9513C122.176 69.8575 116.314 58.533 112.226 52.9559C122.803 39.5435 134.221 29.2684 143.342 22.1583C151.692 28.4772 161.676 29.2459 171.271 22.8397C199.58 60.4232 213.503 103.227 219.273 125.348C214.685 130.227 208.443 140.299 214.767 155.294Z" fill="#74B5A8"/>
<path d="M214.767 155.294C207.52 166.328 198.185 176.092 190.481 183.224C187.932 176.185 180.805 174.108 174.81 173.679C180.063 115.43 167.7 62.4343 155.87 27.208C160.359 27.6036 165.601 26.6255 171.272 22.8397C199.58 60.4233 213.504 103.227 219.273 125.348C214.685 130.228 208.443 140.299 214.767 155.294Z" fill="#44A570"/>
<path d="M243.087 84.0387C224.598 98.7886 195.67 89.8444 183.404 64.192C171.651 39.6143 181.426 12.9201 202.355 6.11884C220.542 0.124156 242.021 10.7618 251.906 31.4328C261.241 50.9553 257.126 72.9071 243.087 84.0387Z" fill="#A89028"/>
<path d="M243.087 84.0387C224.9 90.0279 203.432 79.3793 193.547 58.7138C184.217 39.1967 188.327 17.251 202.355 6.11884C220.543 0.124156 242.021 10.7618 251.906 31.4328C261.242 50.9553 257.126 72.9071 243.087 84.0387Z" fill="#B29D35"/>
<path d="M239.668 72.7968C250.444 67.6478 253.283 51.135 246.01 35.9145C238.738 20.694 224.106 12.5295 213.331 17.6785C202.555 22.8275 199.715 39.3402 206.988 54.5608C214.261 69.7813 228.892 77.9458 239.668 72.7968Z" fill="#A89028"/>
</g>
<defs>
<clipPath id="clip0_319_17182">
<rect width="259" height="259" fill="white"/>
</clipPath>
</defs>
</svg>
