<svg width="23" height="22" viewBox="0 0 23 22" fill="none" xmlns="http://www.w3.org/2000/svg">
<path d="M10.4164 11C10.4164 8.26207 8.19609 6.04248 5.45752 6.04248C2.71959 6.04248 0.5 8.26207 0.5 11C0.5 13.7386 2.71959 15.9582 5.45752 15.9582C8.19609 15.9582 10.4164 13.7386 10.4164 11ZM7.42871 10.5931H6.07116L5.9248 10.82V11.3639H7.42871V11.3659V12.0258V12.136H5.9248V13.3002H4.99092V12.136H3.48766V12.0258V11.3659V11.3639H4.99088V10.8214L4.84517 10.5931H3.48766V9.93511H4.4209L3.62731 8.69975H4.41819L5.45752 10.3165L6.49749 8.69975H7.28906L6.49547 9.93511H7.42871V10.5931Z" fill="#F5F5F5"/>
<path d="M7.20068 5.22931C8.37291 4.31017 9.84459 3.76232 11.4506 3.76232C11.4707 3.76232 11.4909 3.76365 11.511 3.76365L10.9933 5.32801L16.1422 4.06985L12.5993 0.473877L11.9675 2.38465C11.7963 2.37391 11.6238 2.36721 11.4506 2.36721C9.1638 2.36721 7.08652 3.29641 5.58936 4.79494C5.53564 4.84865 5.4846 4.9037 5.43359 4.95878C5.44167 4.95878 5.44971 4.95745 5.45778 4.95745C6.06601 4.95741 6.65146 5.05276 7.20068 5.22931Z" fill="#F5F5F5"/>
<path d="M15.799 16.7713C14.6267 17.6897 13.1551 18.2376 11.5491 18.2389C11.5289 18.2389 11.5088 18.2362 11.4887 18.2362L12.0063 16.6719L6.85742 17.93L10.4003 21.526L11.0321 19.6152C11.2033 19.626 11.3758 19.6327 11.5491 19.6327C13.8358 19.6327 15.9131 18.7035 17.4102 17.2049C17.464 17.1519 17.515 17.0962 17.566 17.0425C17.5579 17.0425 17.5499 17.0425 17.5418 17.0425C16.9336 17.0425 16.3481 16.9471 15.799 16.7713Z" fill="#F5F5F5"/>
<path d="M17.5428 6.04248C14.8049 6.04248 12.584 8.26207 12.584 11C12.584 13.7386 14.805 15.9582 17.5428 15.9582C20.2807 15.9582 22.5004 13.7386 22.5004 11C22.5004 8.26207 20.2808 6.04248 17.5428 6.04248ZM17.5428 14.7181C15.4924 14.7181 13.824 13.0504 13.824 11C13.824 8.94962 15.4924 7.28187 17.5428 7.28187C19.5933 7.28187 21.261 8.94962 21.261 11C21.261 13.0504 19.5933 14.7181 17.5428 14.7181Z" fill="#F5F5F5"/>
<path d="M17.7047 9.3457H16.6486C16.4807 9.3457 16.3438 9.48269 16.3438 9.65052V12.7631C16.3438 12.9309 16.4807 13.0672 16.6486 13.0672H16.8023C16.9708 13.0672 17.1064 12.9309 17.1064 12.7631V11.8863H17.7047C18.5043 11.8863 19.1542 11.3169 19.1542 10.616C19.1542 9.91637 18.5043 9.3457 17.7047 9.3457ZM17.7047 11.2176H17.1064V10.0144H17.7047C18.0833 10.0144 18.3908 10.2843 18.3908 10.616C18.3908 10.9477 18.0833 11.2176 17.7047 11.2176Z" fill="#F5F5F5"/>
</svg>
