<svg width="21" height="23" viewBox="0 0 21 23" fill="none" xmlns="http://www.w3.org/2000/svg">
<path d="M5.66558 22.4491C5.20078 22.1507 4.78884 21.782 4.44558 21.3571C4.06801 20.9186 3.71817 20.4585 3.39798 19.9793C2.64659 18.9171 2.05734 17.7561 1.64829 16.532C1.1569 15.1101 0.918945 13.7473 0.918945 12.4142C0.918945 10.9255 1.25268 9.62595 1.9054 8.53395C2.38926 7.68043 3.10065 6.96717 3.96598 6.46796C4.80459 5.96531 5.76816 5.69023 6.75517 5.67171C7.10069 5.67171 7.47273 5.72006 7.86761 5.81248C8.15124 5.88997 8.49676 6.01225 8.9189 6.16439C9.45596 6.36417 9.75138 6.48645 9.85157 6.51631C10.1661 6.62721 10.4306 6.67556 10.6384 6.67556C10.796 6.67556 11.0185 6.62721 11.2712 6.55328C11.4134 6.50493 11.6816 6.41962 12.0654 6.26108C12.4455 6.12742 12.7446 6.01296 12.9826 5.92765C13.3473 5.82385 13.7002 5.72788 14.0147 5.67953C14.3877 5.6228 14.7661 5.60777 15.1426 5.63474C15.7951 5.6759 16.4377 5.80932 17.05 6.03074C18.0512 6.41962 18.8608 7.02676 19.4634 7.88984C19.2087 8.04134 18.9697 8.21608 18.7496 8.41167C18.2704 8.82158 17.8623 9.3028 17.5406 9.8371C17.1202 10.5673 16.9022 11.3898 16.9078 12.2251C16.9233 13.251 17.1959 14.1546 17.7329 14.9359C18.1278 15.515 18.6409 16.0102 19.241 16.3912C19.5482 16.591 19.8127 16.7282 20.0661 16.8206C19.9475 17.1761 19.8208 17.5202 19.6712 17.8614C19.332 18.6267 18.9209 19.3604 18.4431 20.0533C18.0173 20.6497 17.6836 21.0941 17.4301 21.3898C17.0352 21.8413 16.6551 22.1861 16.2713 22.4264C15.8491 22.6965 15.3504 22.8409 14.8435 22.8409C14.5003 22.8536 14.1571 22.8135 13.8269 22.7221C13.5432 22.6297 13.2625 22.5295 12.9863 22.415C12.6991 22.2877 12.4029 22.1801 12.1 22.0929C11.3513 21.9074 10.5663 21.9061 9.81695 22.0894C9.50974 22.1747 9.21432 22.2742 8.92258 22.3965C8.51223 22.5629 8.23965 22.6745 8.08199 22.7221C7.76742 22.811 7.44105 22.8664 7.11101 22.8849C6.60046 22.8849 6.12455 22.7442 5.65305 22.4591L5.66558 22.4491ZM12.3991 4.9494C11.7317 5.27146 11.0944 5.40867 10.4616 5.36388C10.3621 4.74892 10.4616 4.11974 10.726 3.43084C10.9512 2.84721 11.2839 2.30769 11.7081 1.83834C12.156 1.34425 12.6996 0.939269 13.3082 0.646096C13.9565 0.324041 14.5746 0.149861 15.1655 0.124268C15.2421 0.768377 15.1655 1.40182 14.9201 2.08646C14.6931 2.69166 14.361 3.25519 13.9381 3.75289C13.5064 4.24766 12.9767 4.65421 12.38 4.94869L12.3991 4.9494Z" fill="black"/>
</svg>
