<svg width="22" height="18" viewBox="0 0 22 18" fill="none" xmlns="http://www.w3.org/2000/svg">
<path fill-rule="evenodd" clip-rule="evenodd" d="M4.54857 0.776611C2.55207 0.776611 0.933594 2.39509 0.933594 4.39159V13.6082C0.933594 15.6047 2.55207 17.2232 4.54857 17.2232H17.4518C19.4483 17.2232 21.0668 15.6047 21.0668 13.6082V5.31325V4.39159C21.0668 2.39509 19.4483 0.776611 17.4518 0.776611H4.54857ZM2.63359 4.39159C2.63359 3.33398 3.49096 2.47661 4.54857 2.47661H17.4518C18.5094 2.47661 19.3668 3.33398 19.3668 4.39159V5.31325V5.38491H16.5301C14.5336 5.38491 12.9151 7.00338 12.9151 8.99988C12.9151 10.9964 14.5336 12.6149 16.5301 12.6149H19.3668V13.6082C19.3668 14.6658 18.5094 15.5232 17.4518 15.5232H4.54857C3.49096 15.5232 2.63359 14.6658 2.63359 13.6082V4.39159ZM19.3668 10.9149V7.08488H16.5301C15.4725 7.08488 14.6151 7.94228 14.6151 8.99988C14.6151 10.0575 15.4725 10.9149 16.5301 10.9149H19.3668Z" fill="#E6E6E6"/>
</svg>
